<?xml version="1.0" encoding="utf-8"?>
<!-- Generator: Adobe Illustrator 22.1.0, SVG Export Plug-In . SVG Version: 6.00 Build 0)  -->
<svg version="1.1" xmlns="http://www.w3.org/2000/svg" xmlns:xlink="http://www.w3.org/1999/xlink" x="0px" y="0px"
	 viewBox="0 0 1400 1400" style="enable-background:new 0 0 1400 1400;" xml:space="preserve">
<style type="text/css">
	.st0{fill:#7171AD;}
	.st1{fill:#8E8EC1;}
	.st2{fill:#FFD9EC;}
	.st3{opacity:0.7;fill:#FFA9D8;}
	.st4{fill:#EA5EAB;}
	.st5{fill:#FFA9D8;}
	.st6{fill:#443120;}
</style>
<g id="BACKGROUND">
	<rect class="st0" width="1400" height="1400"/>
</g>
<g id="OBJECTS">
	<g>
		<g>
			<g>
				<path class="st1" d="M924.5,855c6.5,16.7-36.7-49.1-55.9-67c-19.2-17.9-92.4-61.3-108.6-66.1c-16.2-4.8-14,6.7-5.7,9.1
					c8.4,2.4,59.2,28.7,79.8,45.6c20.5,17,63.1,66.1,75.2,85.5c7.7,12.3,18.6,38.9,27.8,61.3c-5.8-0.5-13.3-1.2-17.9-1.6
					c-8.3-0.8-10.3-2.3-11,4.8c-0.5,5.1,21.5,7.1,33.5,7.8c3.5,8.2,6.5,15.2,8.9,19.8c9.1,17.5,26.1,70.1,34,88.5
					c6.7,15.6,2.4,65.1,4.1,81.4c1.7,16.3,9.1,28.2,19.2,29.2c10.1,1,12.8-5.2,14.4-22.2c1.6-17-10.8-61.6-13.4-74.2
					c-2.6-12.6-18.3-38.2-15.1-44.4c3.2-6.1,25.7-39.1,32.4-59.3c6.7-20.2,29-63.1,33.4-69.1c4.3-6,6.6-58.4,1.9-65.8
					c-4.7-7.4-7.4,15.4-7.7,30.4c-0.3,15-9.6,39.3-15.8,47.9c-6.2,8.5-8.7-26.6-13-15.7c-4.2,10.9,6.1,22.6,2.8,30.8
					c-3.3,8.3-33.5,73-38.4,78.5c-4.8,5.4-39.9-89.1-44.7-99.7c-4.9-10.7-16-74.4-12.3-85.6c3.7-11.2,37.7-35.4,40.6-43.7
					c2.9-8.3,1.2-18.1-3.8-10.6c-5,7.6-36.5,51.3-40.2,39.1c-3.7-12.2-2.6-51.8-10.2-56.2C911.3,728.8,918.1,838.3,924.5,855z"/>
			</g>
			<g>
				<path class="st1" d="M788.8,262.4c-19.5-2.2-111.9-37.2-137.5-53.8c-25.6-16.7-88.2-83.3-77.4-65.4
					c10.8,17.8,40.6,141.8,30.9,138.2c-9.6-3.6-16.4-49.1-23-62.3c-6.7-13.2-33.9,43.2-38.1,52.8c-4.2,9.7-8.2-1.2-6.5-11.3
					c1.7-10.1,35.7-44.5,37.7-58.2c2-13.6-23.5-84.3-31.3-95.5C535.8,95.8,476.7-5.4,472.3,1.8c-4.4,7.2-26,87.4-28.1,97.5
					c-2.1,10.1,12.1,21.5,9.4,34.7c-2.7,13.3-12.7-26.4-18-15.4c-5.3,11-11.1,40.7-8.5,58c2.6,17.2,4.1,43.9-2.7,36.3
					c-6.8-7.6-14.8-68-11-75.7c3.8-7.8,20.6-61.4,24.3-85.9c2.2-14.5,9.7-35.3,16.1-51.4h48.4c8.5,14.6,16.5,27.8,22,35.1
					c3.6,4.7,8.5,12.1,14.1,20.8c13.9-1.6,39.4-3.8,39.9,2.2c0.7,8.2-2,6.9-11.6,7.7c-5.3,0.4-14.1,1.1-20.8,1.7
					c15,23.7,32.8,52,44.1,64.5c17.8,19.7,76.4,67.4,103.3,82.7c26.9,15.3,90.4,35.1,100.5,36.2
					C803.6,251.9,808.3,264.6,788.8,262.4z"/>
			</g>
			<path class="st1" d="M1162.5,1102c-32.2-50.8-102.5-51.4-102.5-51.4c72.9-27,34.7-126.3,39.7-147c5-20.7-12.3-45.2-82.1-36.4
				c-69.8,8.8-95,84.2-95,84.2c12.6-60.4-63.6-102.2-96.6-110.8c-33-8.6-120.2,13.8-102.2,34.1c18.1,20.4,0.9,74.2,18.4,114.6
				c17.5,40.4,52,52.8,52,52.8c-42.9-13.9-111.3,36.9-123.5,49.2c-12.2,12.3-49.1,64.1-14.3,57.9c34.8-6.2,17.9,34,85.1,52.7
				c67.2,18.8,100.5-15.8,100.5-15.8c-16.4,20.2-19.8,60.6-2.1,87.3c17.7,26.8,3.9,40.2,9.2,63.4c5.3,23.2,38,29.6,93.8-14.8
				c55.7-44.3,48.6-127.4,48.6-127.4c84.6,46.9,165.6-22.5,176.1-33.6C1178,1150,1194.7,1152.9,1162.5,1102z"/>
			<path class="st1" d="M333.1,805.4c-14.4,15.3-125.5,110.5-241.6,46.1c0,0,9.8,114-66.7,174.8c-8.7,6.9-16.9,12.9-24.8,18.1V510.2
				c10.1-24,47.4-98,127.5-108.1c95.8-12.1,119.5,21.6,112.7,50c-6.9,28.4,45.6,164.6-54.5,201.7c0,0,96.5,0.8,140.7,70.6
				C370.6,794.1,347.6,790.1,333.1,805.4z"/>
			<path class="st1" d="M1400,0v359.5c-1.5-0.8-3.1-1.7-4.7-2.5c-39.6-19.3-63.8-69.3-58.5-104.6c0,0-15.2,64-107.6,88.8
				c-92.5,24.8-100.5-34.6-137.3-2.9c-36.8,31.7-29.4-55.4-23.6-78.4c5.8-23,51-130.4,111.2-144.2c-4,0.7-51.3,7.8-98-26.1
				C1050.3,67,1032,28.2,1013.7,0H1400z"/>
			<g>
				<path class="st1" d="M116.4,1275.1c-9.6,3.4-68.5-12.2-74.2-18.6c-3.7-4.1-23.2-20.7-42.2-35.3v-21.5
					c9.2,6.9,16.4,12.3,18.8,13.9c8.6,5.8,24.4-3,35.7,4.5c11.3,7.5-29.2,1.7-21.1,10.8c8.1,9.1,33.5,25.7,50.4,29.8
					C100.8,1262.9,126,1271.6,116.4,1275.1z"/>
				<path class="st1" d="M108.6,1110.3c20.6-3.2,146.6,16.4,139.7,23.9s-51.7-3.5-66.4-2.4c-14.7,1.1,27.1,47.8,34.4,55.4
					c7.4,7.6-4.2,7.1-12.9,1.7c-8.7-5.4-27.7-49.9-39.5-57c-11.8-7.1-86.9-10.3-100.2-7.4c-6.3,1.4-35.2,5.7-63.6,10.6v-22.3
					c4.3-0.9,9.1-1.8,14.4-2.8c3.8-13.4,11.4-37.9,17.1-36.1c7.8,2.5,5.6,4.5,2.7,13.7c-1.6,5.1-4.3,13.5-6.3,19.9
					c27.6-5,60.6-10.6,76.4-16.3c25-8.9,91.4-45,115.7-64.1c24.4-19.1,66.8-70.3,71.7-79.2c4.8-8.9,18.3-8.5,8.9,8.7
					c-9.4,17.2-76.9,89.4-102,106.8C173.5,1080.9,88.1,1113.4,108.6,1110.3z"/>
			</g>
			<path class="st1" d="M478.5,912c-11.7,1.4-23.9-0.6-25.5-6.1c-1.6-5.5-12-33.9-14.2-43.6c-2.3-9.7-0.6-35.5,12.6-53.3
				c13.2-17.8,35.2-19.4,48.1-29.1c12.9-9.7,5.8-17.1,15.2-13.9c9.4,3.2,30.8,41.6,27.8,69.8C537.6,880.7,502.4,909.1,478.5,912z"/>
			<path class="st1" d="M1400,687.8v123.7c-4.1,1.7-8.1,2.7-11.8,3.2c-11.6,1.4-23.9-0.6-25.5-6.1c-1.6-5.5-12-33.9-14.2-43.6
				c-2.3-9.7-0.7-35.5,12.6-53.3C1371.5,697.6,1387.4,693.6,1400,687.8z"/>
			<path class="st1" d="M165.5,247.5c-7.7,8.9-18.1,15.6-23,12.6c-4.9-3-31.6-17.1-39.8-22.8c-8.2-5.7-24.3-25.9-26.5-47.9
				c-2.1-22.1,13.1-38,16.1-53.9c3.1-15.9-7.2-16.6,1.9-20.5c9.1-3.9,50.7,10.1,67.4,33C188.3,184.6,181.3,229.3,165.5,247.5z"/>
			<path class="st1" d="M903.7,489.2c12.5,5.9,30.5-0.1,39.9-5.9c9.4-5.8,4.9-7.8,9.2-14.3c4.3-6.5-5-18.4-18.4-26.1
				c-13.4-7.7-38.2-12.2-40-20.3c-1.8-8.1,1.6-30.7-4.1-36.3s-17.9,6.9-23.1,14.5c-5.2,7.6-3.4,37.4,1.6,50.1
				C873.8,463.4,887.5,481.5,903.7,489.2z"/>
			<path class="st1" d="M427.6,1386.1c-6.7,4.4-28.1-3.6-36.4-3.5c-4.9,0.1-10.3,8.3-16,17.4h-56.9c-0.2-7.9,1.2-16.2,5.8-22.1
				c10.9-14.3,31.4-24,44.8-26.2c13.5-2.2,43,2.1,49.4,8.8C424.6,1367.1,434.3,1381.6,427.6,1386.1z"/>
		</g>
		<g>
			<g>
				<path class="st2" d="M197,169.1c0,0-12.4-17.8-7.1-43.2c5.3-25.5,32-45.6,30.2-61.6c-1.8-16,48,3,61,18.4
					c13,15.4,35.5,61.6,8.9,86.5c0,0,37.9-27.8,74.6-8.3c36.7,19.5,36.7,37.3,27.2,45.6c-9.5,8.3-24.9,69.3-69.3,57.4
					c0,0,33.8,24.3,32,59.8c-1.8,35.5-8.9,28.4-17.8,30.2c-8.9,1.8-71.6,7.7-96.5-43.8c0,0-24.9,42.6-66.9,45
					c-42,2.4-55.7-11.8-50.3-24.8c5.3-13,16.6-14.8,17.2-33.8c0.6-18.9,16-37.3,30.8-41.4c0,0-27.8,5.3-53.9-26.6
					c-26.1-32-4.1-45.6-23.1-54.5s16.6-21.3,26.6-23.1C130.7,148.9,181,147.7,197,169.1z"/>
				<path class="st3" d="M270.9,166.2c3.4,0.9,8.8-34,3.3-55c-5.7-21.8-17.8-30.6-20.9-30.6c-3,0,10.2,13.4,13.6,25.9
					C273.9,131.9,267.6,165.3,270.9,166.2z"/>
				<path class="st3" d="M261.6,164.2c0,0,1.9-16.7-2.9-27.5c-4.8-10.8-11.2-15.7-12.9-15.7c-1.6,0,6.3,7.7,9.6,13.7
					C261.2,145.1,259,158.2,261.6,164.2z"/>
				<path class="st4" d="M258,177.8c0,1.8-1.5,3.3-3.3,3.3c-1.8,0-3.3-1.5-3.3-3.3c0-1.8,1.5-3.3,3.3-3.3
					C256.5,174.5,258,176,258,177.8z"/>
				<path class="st3" d="M318.5,172.8c0,0,24-6.7,40.6,0c16.6,6.7,27.5,19.4,26.7,22.3c-0.8,2.9-6.5-7.7-16-12.6
					C343.3,168.6,315.8,175.5,318.5,172.8z"/>
				<path class="st3" d="M297.6,202.9c9.3-5.5,28-10.9,42.8-5.1c14.8,5.9,5.9,5.8-0.9,3.4c-7.7-2.7-15.9-5.1-31.6-0.3
					C297.8,203.9,293.8,205.2,297.6,202.9z"/>
				<path class="st5" d="M288.2,185.4c-2.3,0.7,21.1-10.6,25.3-10.9c4.2-0.2,1.7,1.3-1.3,2.6C309.3,178.3,295.4,183.3,288.2,185.4z"
					/>
				<path class="st5" d="M183.6,196.2c-10.7-4-17.7-15.2-37.4-10.5c-10,2.4,3.7-4.2,11.6-3.4C169.2,183.5,187.3,197.6,183.6,196.2z"
					/>
				<path class="st5" d="M180.1,204.3c-2.6-0.1-8.3-0.8-13.7,0.6c-1.6,0.4-1-1.3,5.2-2.1C175.6,202.2,182.5,204.4,180.1,204.3z"/>
				<path class="st5" d="M194.1,278.5c2.7-3.8,9.3-11.5,12.4-20.9c0.9-2.7,2.8-0.3-1.9,9.7C201.5,273.8,191.7,281.9,194.1,278.5z"/>
				<path class="st5" d="M128,164.2c19-6,36.4-1.4,50.4,5.6c14,7,15.1,12.7,14.4,12.5c-0.6-0.3-10-7.1-19.8-11.4
					c-18.7-8.3-30.4-5.9-42.1-4.1C118.7,168.7,124.3,165.4,128,164.2z"/>
				<path class="st5" d="M252.4,260c0,0-1.2,21.7,9.6,37.8c10.8,16.2,24.6,18.1,27.5,18.1c2.9,0-7-4.3-14-11.6
					c-7-7.2-15.2-17.9-18.1-29.9C254,260,252.4,255.2,252.4,260z"/>
				<path class="st5" d="M264.7,255.1c-0.6,3,12.6,20.2,19.8,23.5c7.2,3.4-3-6.7-6.1-9.3C269.7,262.2,265.1,252.7,264.7,255.1z"/>
				<path class="st5" d="M225.7,264c0,0,4.1,24.6-11.2,44c-17.1,21.8-37.8,26.5-35.9,22.5c1-1.9,17.9-5.7,27.7-18.7
					C226.4,285.2,220.5,258.8,225.7,264z"/>
				<path class="st4" d="M285,201.4c-1.6-0.5-3.3,0.4-4,1.9c-6.4,0.6-12.3,2.3-18,4.6c-3.6-1-7.4-0.2-9.6,0.4
					c2.3-5.5,5.8-10.5,10.5-14.3c0.6,0.6,1.5,1.1,2.4,1.1c1.8,0,3.3-1.5,3.3-3.3c0-1.8-1.5-3.3-3.3-3.3s-3.3,1.5-3.3,3.3
					c0,0.2,0.1,0.4,0.1,0.6c-5.1,4.1-9,9.6-11.5,15.7c0.5-5.8-1.5-9.7-4.3-11.9c1.9-5.6,4.4-11.1,8-16.3c0.7-0.9-0.9-1.8-1.5-0.9
					c-3.6,5.1-6.1,10.5-8,16.1c-1.9-1.1-3.9-1.5-5.5-1.3c-1.3-3.9-3-7.7-4.8-11.7c0.8-0.6,1.4-1.5,1.4-2.7c0-1.8-1.5-3.3-3.3-3.3
					c-1.8,0-3.3,1.5-3.3,3.3s1.5,3.3,3.3,3.3c0.1,0,0.2,0,0.2,0c1.8,3.9,3.4,7.6,4.8,11.5c-0.3,0.1-0.6,0.3-0.8,0.5
					c-1.9,1.8-3.3,5.1-4.1,8.3c-4.8-8.3-11.7-15.4-20-19.6c0-0.1,0-0.1,0-0.2c0-1.8-1.5-3.3-3.3-3.3c-1.8,0-3.3,1.5-3.3,3.3
					c0,1.8,1.5,3.3,3.3,3.3c1.1,0,2.1-0.6,2.7-1.5c8.4,4.4,15.4,11.9,20,20.6c-0.2,1.3-0.2,2.4-0.1,3.3c0,0-10.1-10.9-16.3-3.9
					c-0.7,0.8-1.1,1.6-1.3,2.5c-4.8-2.6-9.8-4.7-14.9-6.2c-0.2-1.7-1.5-3-3.3-3c-1.8,0-3.3,1.5-3.3,3.3c0,1.8,1.5,3.3,3.3,3.3
					c1.3,0,2.4-0.8,3-1.9c5.1,1.5,10.3,3.7,15.1,6.4c0.4,3.4,3.7,6.9,6.5,9.3c-5.7-0.1-11.2,0.7-16.9,1.6c-0.4-1-1.1-1.8-2.2-2.1
					c-1.8-0.5-3.6,0.5-4.1,2.3c-0.5,1.8,0.5,3.6,2.3,4.1c1.8,0.5,3.6-0.5,4.1-2.3c0-0.1,0-0.2,0-0.2c6.5-1,12.7-1.9,19.1-1.5
					c1,0.7,1.7,1.1,1.7,1.1c-7.1-1.7-14.4,4.6-16,10.7c-2,2.1-3.8,4.4-5.7,6.7c-0.9-0.5-2-0.6-3-0.2c-1.7,0.8-2.4,2.7-1.7,4.4
					c0.8,1.7,2.7,2.4,4.4,1.7c1.7-0.8,2.4-2.7,1.7-4.4c0-0.1-0.1-0.1-0.1-0.2c1.4-1.6,2.8-3.2,4.2-4.7c0.2,1.8,1.1,3.4,2.9,4.5
					c2.1,1.3,4.2,1.7,6.2,1.6c-2.1,4.8-3.4,9.9-3.7,15c-0.1,0-0.1,0-0.2,0c-1.7,0.7-2.5,2.7-1.7,4.4c0.7,1.7,2.7,2.5,4.4,1.7
					c1.7-0.7,2.5-2.7,1.7-4.4c-0.5-1-1.4-1.7-2.4-1.9c0.4-5.2,1.8-10.4,4-15.3c5.1-1.4,8.9-5.8,8.9-5.8s-5.5,17.2,3.3,19
					c0.1,0,0.2,0,0.2,0c-0.4,5.9-1.3,11.7-3.4,17.6c-1.2-0.3-2.5,0-3.4,0.9c-1.2,1.4-1.1,3.5,0.2,4.7c1.4,1.2,3.5,1.1,4.7-0.2
					c1.2-1.3,1.1-3.2,0-4.4c2.2-6.1,3.2-12.3,3.6-18.4c8.5-0.2,9.4-15,9.4-15l0,0c1.9,4.6,3,9.5,3,14.4c-0.9,0.1-1.7,0.5-2.3,1.2
					c-1.2,1.4-1,3.5,0.4,4.7c1.4,1.2,3.5,1,4.7-0.4c1.2-1.4,1-3.5-0.4-4.7c-0.2-0.1-0.4-0.2-0.6-0.3c0.1-4.5-0.7-8.9-2.2-13.1
					c4.4,3.2,10.5,7.7,14.8,1.3c3.6,2.6,7.4,4.8,11.3,7c-0.3,1-0.3,2.1,0.4,3c1.1,1.5,3.2,1.8,4.6,0.7c1.5-1.1,1.8-3.2,0.7-4.6
					c-1.1-1.5-3.2-1.8-4.6-0.7c-0.1,0-0.1,0.1-0.2,0.2c-4-2.3-7.8-4.5-11.4-7.1c2.4-5.1-0.4-9.7-3.2-12.7c5.4-0.1,10.7-0.9,16.2-1.9
					c0.4,1,1.1,1.8,2.2,2.1c1.8,0.5,3.6-0.6,4.1-2.4c0.5-1.8-0.6-3.6-2.4-4.1c-1.8-0.5-3.6,0.6-4.1,2.4c0,0.1,0,0.2,0,0.2
					c-6,1.1-11.8,2-17.8,1.9c-1.4-1.2-2.4-1.9-2.4-1.9c10-0.6,18-9.6,11.7-15.1c-0.5-0.5-1.1-0.8-1.7-1.2c4.9-1.8,10-3.2,15.5-3.7
					c0.2,1.2,1,2.3,2.3,2.6c1.8,0.5,3.6-0.5,4.1-2.2C287.8,203.8,286.8,201.9,285,201.4z"/>
			</g>
			<g>
				<path class="st2" d="M635.6,856.2c0,0-20.4-7.3-30.7-31.2c-10.3-23.9-0.2-55.7-10.8-67.7c-10.7-12,40.9-25.2,60.4-20.2
					c19.5,5.1,64.5,29.8,57.1,65.5c0,0,14.9-44.6,56.2-49.8c41.3-5.2,51.5,9.3,48.5,21.5s19.6,70.9-23.5,86.9
					c0,0,41.6,0.4,60.6,30.4s9.1,28.3,2.9,34.9c-6.2,6.6-54.1,47.6-104.1,19.9c0,0,4.2,49.1-28.7,75.3c-33,26.2-52.3,22.5-55.4,8.7
					c-3.2-13.7,5-21.7-5.4-37.5c-10.4-15.8-8.5-39.7,1.2-51.6c0,0-19.7,20.4-59.4,9.3c-39.7-11.1-29.7-34.9-50.3-31.2
					c-20.6,3.7,1.2-27,8.4-34.2C569.8,878,610.3,848,635.6,856.2z"/>
				<path class="st3" d="M694.3,811.2c3.3-1.2-12.5-32.9-29-46.9c-17.2-14.5-32.2-14.8-34.7-13c-2.5,1.8,16,5.1,26,13.3
					C677,781.5,691.1,812.4,694.3,811.2z"/>
				<path class="st3" d="M685.6,814.9c0,0-8.1-14.7-18.3-20.8c-10.2-6.1-18.2-6.3-19.5-5.4c-1.3,0.9,9.6,2.7,15.8,5.7
					C674.3,799.6,680,811.5,685.6,814.9z"/>
				<path class="st3" d="M737,789.1c0,0,15.8-19.3,33.2-23.4c17.4-4.1,33.6,0,34.7,2.8c1,2.8-9.7-2.5-20.4-1.1
					C754.9,771.4,736.4,792.9,737,789.1z"/>
				<path class="st3" d="M737.3,825.8c4.4-9.8,16.5-25.1,32-28.8c15.5-3.8,8.2,1.3,1.2,3.3c-7.9,2.2-15.9,5-26,18
					C738.1,826.5,735.5,829.8,737.3,825.8z"/>
				<path class="st5" d="M719.5,816.9c-1.5,1.9,11.1-20.8,14.4-23.5c3.3-2.6,2.2,0.1,0.5,2.8C732.7,799,724.2,811,719.5,816.9z"/>
				<path class="st5" d="M640.3,886.1c-11,2.9-23.2-2.3-36.6,13c-6.8,7.7,0.6-5.5,7.5-9.4C621.3,884,644.1,885.1,640.3,886.1z"/>
				<path class="st5" d="M642.2,894.7c-2.2,1.4-7.3,4.1-10.9,8.4c-1,1.2-1.5-0.5,3-4.7C637.3,895.6,644.2,893.4,642.2,894.7z"/>
				<path class="st5" d="M696.4,947.2c0.1-4.6,1-14.8-1.9-24.2c-0.8-2.7,2.2-1.8,4,9.1C699.7,939.1,696.3,951.4,696.4,947.2z"/>
				<path class="st5" d="M576.5,892c12.1-15.8,29-22.1,44.4-24.5c15.5-2.4,19.7,1.7,19,1.8c-0.7,0.2-12.3,0-22.7,2.1
					c-20.1,4-28.3,12.7-36.7,20.9C571.5,901,574.1,895.1,576.5,892z"/>
				<path class="st5" d="M733.3,898.6c0,0,11.5,18.4,29.7,25.4c18.2,6.9,30.5,0.6,32.9-1.1c2.4-1.7-8.2,0.5-18.1-1.4
					c-9.9-1.9-22.8-5.8-32-14C734.6,897.6,730.6,894.6,733.3,898.6z"/>
				<path class="st5" d="M740.5,887.4c1.2,2.8,21.9,9.2,29.7,7.8s-6.4-3.8-10.4-4.1C748.7,890.3,739.5,885.2,740.5,887.4z"/>
				<path class="st5" d="M713.8,917.1c0,0,17.5,17.8,16.3,42.4c-1.4,27.7-15.7,43.4-16.3,39.1c-0.3-2.1,11.3-14.9,11.8-31.2
					C726.6,934.1,706.6,915.9,713.8,917.1z"/>
				<path class="st4" d="M748.9,874.3c-1.7-0.6-3.6,0.3-4.2,2.1c0,0.1,0,0.2,0,0.2c-4.6,0.5-9,0.8-13.4,0.8c-1-5.5-5.9-7.7-10-8.5
					c4.4-3.2,8.2-6.9,12.1-10.9c0.9,0.6,1.9,0.8,3,0.4c1.7-0.6,2.6-2.6,1.9-4.3c-0.6-1.7-2.6-2.6-4.3-1.9c-1.7,0.6-2.6,2.6-1.9,4.3
					c0,0.1,0.1,0.1,0.1,0.2c-4.3,4.4-8.5,8.4-13.4,11.8c-1.8-0.2-3.1-0.1-3.1-0.1c7.8-6.3,9.1-18.3,0.9-19.1c-0.7-0.1-1.4,0-2.1,0
					c2.9-4.3,6.4-8.4,10.5-12c0.9,0.9,2.2,1.2,3.4,0.8c1.7-0.6,2.7-2.5,2.1-4.2c-0.6-1.7-2.5-2.7-4.2-2.1c-1.6,0.5-2.5,2.2-2.1,3.9
					c-4.9,4.2-8.8,9-12.1,14.1c-3.5,1.2-6.1,4.1-7.5,5.9c-1.3-5.8-1.3-12,0.3-17.8c0.9,0.2,1.8,0,2.6-0.5c1.5-1.1,1.9-3.1,0.8-4.6
					c-1.1-1.5-3.1-1.9-4.6-0.8c-1.5,1.1-1.9,3.1-0.8,4.6c0.1,0.2,0.3,0.3,0.5,0.5c-1.8,6.3-1.8,13-0.4,19.4c-2.9-5-6.8-7-10.4-7.2
					c-1.6-5.2-2.6-10.7-2.8-16.4c0,0,0,0,0,0c1.5-1.1,1.9-3.1,0.8-4.6c-1.1-1.5-3.1-1.9-4.6-0.8c-1.5,1.1-1.9,3.1-0.8,4.6
					c0.7,1,1.8,1.4,2.8,1.3c0.2,5.6,1.2,10.8,2.7,15.9c-2.2,0.2-4,1-5.3,2.1c-3.4-2.4-6.9-4.6-10.6-6.8c0.3-1,0.3-2.1-0.4-3
					c-1.1-1.5-3.1-1.9-4.6-0.8c-1.5,1.1-1.9,3.1-0.8,4.6c1.1,1.5,3.1,1.9,4.6,0.8c0.1,0,0.1-0.1,0.2-0.2c3.7,2.1,7.2,4.2,10.5,6.6
					c-0.2,0.3-0.3,0.6-0.3,0.9c-0.5,2.6,0.2,6.1,1.4,9.1c-8.7-4-18.5-5.8-27.6-4.5c0,0,0-0.1-0.1-0.1c-1.1-1.5-3.1-1.9-4.6-0.8
					c-1.5,1.1-1.9,3.1-0.8,4.6c1.1,1.5,3.1,1.9,4.6,0.8c0.9-0.7,1.4-1.7,1.3-2.8c9.4-1.3,19.5,0.8,28.3,5.3c0.6,1.1,1.2,2.1,1.8,2.8
					c0,0-14.5-3-15.5,6.3c-0.1,1,0,1.9,0.3,2.7c-5.4,0.6-10.8,1.8-15.8,3.5c-1.1-1.2-3-1.5-4.4-0.5c-1.5,1.1-1.9,3.1-0.8,4.6
					c1.1,1.5,3.1,1.9,4.6,0.8c1.1-0.8,1.5-2.1,1.3-3.3c5.1-1.7,10.5-2.9,16-3.4c2.3,2.6,7,3.5,10.7,3.9c-4.7,3.2-8.7,7-12.9,11
					c-0.9-0.6-1.9-0.8-3-0.5c-1.7,0.6-2.6,2.5-2,4.2c0.6,1.7,2.5,2.6,4.2,2c1.7-0.6,2.6-2.5,2-4.2c0-0.1-0.1-0.1-0.1-0.2
					c4.7-4.6,9.3-8.8,14.8-12.2c1.2,0,2,0,2,0c-6.7,2.7-9.1,12.1-6.9,17.9c-0.4,2.9-0.6,5.8-0.8,8.8c-1,0.1-2,0.6-2.5,1.6
					c-0.9,1.6-0.4,3.6,1.2,4.6c1.6,0.9,3.6,0.4,4.6-1.2c0.9-1.6,0.4-3.6-1.2-4.6c-0.1,0-0.2,0-0.2-0.1c0.2-2.1,0.4-4.2,0.7-6.2
					c1.2,1.3,2.9,2.1,5,2c2.5-0.1,4.4-1,5.9-2.2c1.1,5.1,3,10,5.7,14.4c0,0-0.1,0.1-0.1,0.1c-1,1.6-0.5,3.6,1.1,4.6
					c1.6,1,3.6,0.5,4.6-1.1c1-1.6,0.5-3.6-1.1-4.6c-1-0.6-2.1-0.6-3.1-0.1c-2.7-4.4-4.5-9.5-5.6-14.7c3.4-4,3.9-9.9,3.9-9.9
					s5.5,17.2,13.7,13.6c0.1,0,0.1-0.1,0.2-0.1c3.1,5,5.7,10.4,7.4,16.3c-1.2,0.4-2,1.4-2.2,2.7c-0.2,1.8,1.1,3.5,2.9,3.7
					c1.8,0.2,3.5-1.1,3.7-2.9c0.2-1.7-0.9-3.2-2.6-3.6c-1.7-6.3-4.4-11.9-7.7-17.2c6.8-5.1-1-17.6-1-17.6c0,0,0,0,0,0
					c4.2,2.6,7.9,6,10.7,10c-0.7,0.6-1.1,1.4-1.2,2.3c-0.1,1.8,1.2,3.4,3.1,3.6c1.8,0.1,3.4-1.2,3.6-3.1c0.1-1.8-1.2-3.4-3.1-3.6
					c-0.2,0-0.4,0.1-0.6,0.1c-2.5-3.7-5.7-6.9-9.3-9.4c5.4,0.1,13,0.2,12.8-7.5c4.4,0,8.8-0.3,13.3-0.8c0.3,1,1,1.8,2.1,2.2
					c1.7,0.6,3.6-0.3,4.2-2.1C751.6,876.8,750.6,874.9,748.9,874.3z"/>
			</g>
			<g>
				<path class="st5" d="M693.2,439.4c0,0,5.7-1.5,6.5-0.2c0.7,1.3,1,5.7,1,5.7s-4.4,3.5-5.8,2.1
					C693.5,445.7,692.5,439.8,693.2,439.4z"/>
				<path class="st6" d="M605.2,445.8c0,0,18.8,25.7,14.4,64.3c-4.3,38.5-19.9,68.7-12.9,71.8c7.1,3.2,11.2-29.8,11.2-29.8
					s26.7-16.6,32.8-25.2c6.1-8.6,18.1-23.8,15.4-27c-2.7-3.2-24.3,31.9-43.1,41.8c0,0,5.5-33.1,0.7-60.8
					C619,453.1,612.3,442.7,605.2,445.8z"/>
				<path class="st5" d="M569.4,392.6c0,0-10.4-45.4-0.8-51.4c9.6-6,21.9,9.3,24.4,11.4c0,0,11.4-21.3,20.7-20.7
					c9.3,0.6,13.7,20.6,14.4,24c0,0,8.3-6.6,12.9-1.2c4.6,5.5,0.2,30.9-2.7,36.2C635.5,396.2,585,417.6,569.4,392.6z"/>
				<g>
					<path class="st4" d="M595.2,329.2c0.5,1.8-0.6,3.6-2.3,4.1c-1.8,0.5-3.6-0.6-4.1-2.3c-0.5-1.8,0.6-3.6,2.3-4.1
						C592.9,326.4,594.8,327.4,595.2,329.2z"/>
					<g>
						<path class="st4" d="M591.1,330c-0.5,13.1,1.3,32.2,9.3,43.1c0.7,0.9,2.2,0,1.5-0.9c-7.8-10.6-9.6-29.5-9.1-42.2
							C593,328.9,591.2,328.9,591.1,330L591.1,330z"/>
					</g>
				</g>
				<g>
					<path class="st4" d="M612.9,331.1c0.5,1.8-0.6,3.6-2.3,4.1c-1.8,0.5-3.6-0.6-4.1-2.3c-0.5-1.8,0.6-3.6,2.3-4.1
						C610.6,328.2,612.4,329.3,612.9,331.1z"/>
					<g>
						<path class="st4" d="M608.8,331.9c-0.5,13.8,5.7,29.3,2.2,42.8c-0.3,1.1,1.4,1.6,1.7,0.5c3.5-13.7-2.7-29.3-2.2-43.3
							C610.6,330.8,608.8,330.8,608.8,331.9L608.8,331.9z"/>
					</g>
				</g>
				<g>
					<path class="st4" d="M584.6,343.6c1,1.6,0.5,3.6-1,4.6s-3.6,0.5-4.6-1c-1-1.6-0.5-3.6,1-4.6
						C581.6,341.6,583.6,342.1,584.6,343.6z"/>
					<g>
						<path class="st4" d="M580.9,345.6c3.5,12.8,10.9,30.4,21.9,38.5c0.9,0.7,1.8-0.9,0.9-1.5c-10.4-7.6-17.8-25.4-21.1-37.4
							C582.4,344.1,580.6,344.5,580.9,345.6L580.9,345.6z"/>
					</g>
				</g>
				<g>
					<path class="st4" d="M623.7,343c0.1,1.8-1.4,3.4-3.2,3.4c-1.8,0.1-3.4-1.4-3.4-3.2c-0.1-1.8,1.4-3.4,3.2-3.4
						C622.1,339.8,623.7,341.2,623.7,343z"/>
					<g>
						<path class="st4" d="M619.5,342.9c-2.1,11.6-1.6,30.8-11.7,38.8c-0.9,0.7,0.4,2,1.3,1.2c10.6-8.4,9.9-27.5,12.1-39.6
							C621.5,342.3,619.8,341.8,619.5,342.9L619.5,342.9z"/>
					</g>
				</g>
				<g>
					<path class="st4" d="M598.5,344.6c-0.1,1.8,1.4,3.4,3.2,3.5c1.8,0.1,3.4-1.4,3.5-3.2c0.1-1.8-1.4-3.4-3.2-3.5
						C600.1,341.3,598.6,342.7,598.5,344.6z"/>
					<g>
						<path class="st4" d="M601,344.9c3.2,12.1,5.7,31.1,0.5,42.9c-0.5,1,1.1,1.9,1.5,0.9c5.5-12.5,3.1-31.5-0.3-44.3
							C602.4,343.4,600.7,343.8,601,344.9L601,344.9z"/>
					</g>
				</g>
				<g>
					<path class="st4" d="M624.6,354.3c-0.9,1.6-0.4,3.6,1.2,4.6c1.6,0.9,3.6,0.4,4.6-1.2c0.9-1.6,0.4-3.6-1.2-4.6
						C627.6,352.2,625.6,352.7,624.6,354.3z"/>
					<g>
						<path class="st4" d="M626.6,355.7c-1.7,7.1-4.7,13.8-7.9,20.3c-3,6.1-6.6,13.5-12.1,17.7c-0.9,0.7,0,2.2,0.9,1.5
							c5.5-4.1,8.9-10.9,12-16.8c3.7-7,7.1-14.5,8.9-22.2C628.6,355.1,626.9,354.6,626.6,355.7L626.6,355.7z"/>
					</g>
				</g>
				<path class="st2" d="M595.8,434.8c0,0-20.4-7.9-33.5-26.9c-13.1-18.9-14.1-34.2-10.7-35.1c3.4-0.9,28.3,11.2,31.2,17.2
					c0,0,6.4-32.9,20-36.9c13.7-3.9,22.8,25.4,24,36.4c0,0,17.9-27.5,24.5-26.2c6.6,1.3-9.8,49.2-26.4,65
					C608.5,444,595.8,434.8,595.8,434.8z"/>
				<g>
					<path class="st2" d="M660,488.3c0,0-1.8-14.6,1.2-25.7c2.9-11,15.6-23.1,23.9-25.4c8.4-2.2,11.6-0.2,12.1,1.9
						c0.5,2-0.7,7.1-0.7,7.1s1.8-3.7,4-3.4s8.1,15.5,5.7,25.6c-2.4,10.1-10.4,22.1-24.3,26C668.2,498.3,660.5,494.6,660,488.3z"/>
					<path class="st5" d="M696.6,446.2c0,0-0.6,26.5-8.6,33.4c-8,6.9,0.1,1.9,1.3,0.5c4.1-4.7,5.7-9.2,6.7-16.5
						C697,456.4,697.2,447,696.6,446.2z"/>
					<path class="st5" d="M668.6,469.3c0,0,1.1,16.6-2,22.5c-3.1,5.9,2.7-0.1,3.1-5.9C670.1,480,669.9,469.8,668.6,469.3z"/>
					<path class="st4" d="M658.2,478.2c-3.1,3.3-8.1,18.4-3.6,25c4.5,6.6,10.1,8.2,15.1,5.8c5-2.4,18.1-13.6,19.8-16.7
						c1.7-3.1-8.5-6.4-20.6-1.3C668.9,491,664,472,658.2,478.2z"/>
					<path class="st5" d="M673.2,487.4c0,0,4-4,5.3-7.1c1.2-3.1,0.7,2.4-2.2,5.1C673.3,488.3,672.3,488.4,673.2,487.4z"/>
				</g>
				<path class="st5" d="M582.3,395.7c0,0,8.5,23.1,15.6,32.2c7.1,9.1,2.5,5.7,0.1,2.6C589.5,419.5,584.2,402.6,582.3,395.7z"/>
				<path class="st5" d="M619.6,432.7c0,0,5.5-16.6,5.3-26.8c-0.2-10.2,1.1-3,1.1,1.7C625.9,412.4,623,430.1,619.6,432.7z"/>
				<path class="st5" d="M602.2,414.8c0,0,5.5,19.5,8.5,20.9c3,1.4-0.5-1.3-2-5C607.1,427,602.9,413.8,602.2,414.8z"/>
				<path class="st4" d="M587.4,430c-3,5.5,11.2,23.4,20.7,24.1c8.1,0.6,14.5-0.7,17.6-7.1c3.1-6.4,5.7-22.3,4.1-24.3
					c-1.6-2-14.6,10.1-17.7,11.3C602.9,437.7,590.3,424.7,587.4,430z"/>
			</g>
			<g>
				<path class="st5" d="M939.1,1026.7c0,0-3.2-5-2.3-6.1c1-1.1,5.1-2.8,5.1-2.8s4.7,3,3.8,4.8
					C944.9,1024.4,939.6,1027.2,939.1,1026.7z"/>
				<path class="st6" d="M973.2,1108c0,0,18.4-26,56.3-34.2c37.9-8.2,71.4-3.1,72.2-10.8c0.8-7.7-31.9-1.1-31.9-1.1
					s-24.2-20-34.3-23c-10.1-3-28.4-9.5-30.5-5.9c-2.1,3.6,38,12.8,53.4,27.5c0,0-33.1,5.3-57.9,18.8
					C975.8,1092.6,968,1102.2,973.2,1108z"/>
				<path class="st5" d="M934.3,1158.9c0,0-39.7,24.4-48.5,17.2c-8.8-7.2,1.8-23.7,3-26.7c0,0-23.8-4-26.2-13
					c-2.4-9,15.1-19.5,18.1-21.3c0,0-8.9-5.8-5.2-11.8c3.7-6.1,29.2-10,35.2-9.1C916.6,1095.2,953,1136.1,934.3,1158.9z"/>
				<g>
					<g>
						<path class="st4" d="M866,1154.7c1.5-1,3.6-0.6,4.6,0.9c1,1.5,0.6,3.6-0.9,4.6c-1.5,1-3.6,0.6-4.6-0.9
							S864.4,1155.7,866,1154.7z"/>
						<g>
							<path class="st4" d="M868.1,1158.3c12.6-3.7,30.1-11.6,37.8-22.6c0.6-0.9-0.7-2.1-1.3-1.2c-7.5,10.8-24.9,18.5-37,22.1
								C866.4,1157,867,1158.6,868.1,1158.3L868.1,1158.3z"/>
						</g>
					</g>
					<g>
						<path class="st4" d="M862.1,1137.4c1.5-1,3.6-0.6,4.6,0.9c1,1.5,0.6,3.6-0.9,4.6c-1.5,1-3.6,0.6-4.6-0.9
							C860.1,1140.5,860.6,1138.4,862.1,1137.4z"/>
						<g>
							<path class="st4" d="M864.2,1141c13.2-3.9,26-14.8,39.8-15.8c1.1-0.1,1-1.9-0.1-1.8c-14.1,1-26.9,11.9-40.3,15.9
								C862.6,1139.6,863.1,1141.3,864.2,1141L864.2,1141z"/>
						</g>
					</g>
					<g>
						<path class="st4" d="M883,1160.2c1.2-1.4,3.3-1.6,4.7-0.5c1.4,1.2,1.6,3.3,0.5,4.7c-1.2,1.4-3.3,1.6-4.7,0.5
							C882.1,1163.7,881.9,1161.6,883,1160.2z"/>
						<g>
							<path class="st4" d="M886.1,1163c11-7.4,25.4-20,29.5-33.1c0.3-1.1-1.4-1.4-1.7-0.3c-3.9,12.3-18.3,25-28.7,31.9
								C884.2,1162.2,885.2,1163.6,886.1,1163L886.1,1163z"/>
						</g>
					</g>
					<g>
						<path class="st4" d="M870,1123.3c1.7-0.6,3.6,0.2,4.3,1.9c0.6,1.7-0.2,3.6-1.9,4.3c-1.7,0.6-3.6-0.2-4.3-1.9
							C867.4,1125.9,868.2,1123.9,870,1123.3z"/>
						<g>
							<path class="st4" d="M871.2,1127.3c11.7-1.7,29.6-8.4,40.5-1.3c1,0.6,1.7-1,0.8-1.6c-11.3-7.4-29.2-0.6-41.4,1.2
								C870,1125.7,870.1,1127.5,871.2,1127.3L871.2,1127.3z"/>
						</g>
					</g>
					<g>
						<path class="st4" d="M879.5,1146.7c1.8-0.5,2.8-2.4,2.3-4.1c-0.5-1.8-2.4-2.8-4.1-2.3c-1.8,0.5-2.8,2.4-2.3,4.1
							C875.9,1146.2,877.7,1147.2,879.5,1146.7z"/>
						<g>
							<path class="st4" d="M879,1144.2c10.4-6.9,27.6-15.4,40.5-14.2c1.1,0.1,1.5-1.6,0.3-1.7c-13.6-1.2-30.8,7.1-41.9,14.5
								C877.1,1143.4,878.1,1144.9,879,1144.2L879,1144.2z"/>
						</g>
					</g>
					<g>
						<path class="st4" d="M880.3,1118.8c1.8,0.4,3.6-0.8,4-2.6c0.4-1.8-0.8-3.6-2.6-4c-1.8-0.4-3.6,0.8-4,2.6
							C877.4,1116.7,878.5,1118.5,880.3,1118.8z"/>
						<g>
							<path class="st4" d="M881.1,1116.5c7.2-0.7,14.6,0.1,21.8,1c6.7,0.9,14.9,1.9,20.6,5.8c0.9,0.6,2.1-0.7,1.2-1.3
								c-5.6-3.8-13.2-4.9-19.8-6c-7.8-1.3-16-2-23.9-1.3C879.8,1114.8,879.9,1116.6,881.1,1116.5L881.1,1116.5z"/>
						</g>
					</g>
				</g>
				<path class="st2" d="M965.9,1120.4c0,0-1,21.9-14.7,40.4c-13.8,18.5-27.9,24.3-29.8,21.4c-1.9-2.9,1.6-30.4,6.3-35
					c0,0-33.2,4.5-41.3-7.2c-8.1-11.7,16.7-29.7,26.8-34.4c0,0-31.8-8.2-32.6-14.8c-0.8-6.6,49.7-6.5,70,4.2
					C970.5,1105.4,965.9,1120.4,965.9,1120.4z"/>
				<g>
					<path class="st2" d="M996,1042.4c0,0-13.3,6.3-24.7,7.1c-11.4,0.8-26.9-7.3-31.7-14.5c-4.8-7.2-3.9-10.9-2.1-12.1
						c1.7-1.2,6.9-1.6,6.9-1.6s-4.1-0.5-4.5-2.7c-0.4-2.1,12.1-12.7,22.4-13.6c10.4-1,24.3,2.8,32.4,14.7
						C1002.8,1031.5,1001.8,1040,996,1042.4z"/>
					<path class="st5" d="M944.4,1021.2c0,0,25.3-8,34.4-2.6s1.8-0.7,0.1-1.4c-5.8-2.4-10.5-2.5-17.8-1.1
						C953.9,1017.6,944.9,1020.4,944.4,1021.2z"/>
					<path class="st5" d="M975.2,1040.4c0,0,15.4-6.3,22-5.3c6.6,1-0.9-2.5-6.6-1C984.9,1035.6,975.3,1039,975.2,1040.4z"/>
					<path class="st4" d="M987,1047.4c4.1,1.8,20.1,1.8,24.9-4.6c4.8-6.3,4.5-12.2,0.7-16.2c-3.8-4-18.7-12.8-22.2-13.4
						c-3.5-0.6-3.4,10.1,5.4,19.9C995.7,1033.1,979.3,1043.9,987,1047.4z"/>
					<path class="st5" d="M990.9,1030.3c0,0-5.1-2.5-8.4-2.7c-3.3-0.2,2-1.5,5.6,0.5C991.7,1029.9,992.1,1030.8,990.9,1030.3z"/>
				</g>
				<path class="st5" d="M933.1,1145.7c0,0,19.2-15.4,25.5-25.1c6.4-9.6,4.6-4.2,2.4-0.9C953.3,1131.3,939.1,1141.7,933.1,1145.7z"
					/>
				<path class="st5" d="M956.3,1098.5c0,0-17.5,0.1-27.1,3.6c-9.6,3.5-3.2-0.1,1.3-1.6C934.9,1099,952.7,1096.1,956.3,1098.5z"/>
				<path class="st5" d="M944.8,1120.8c0,0,16.7-11.4,17-14.7c0.4-3.3-1.1,0.9-4.1,3.5C954.8,1112.1,943.7,1120.4,944.8,1120.8z"/>
				<path class="st4" d="M964,1129.9c6.1,1.1,18.6-18.1,16.2-27.3c-2-7.8-5.3-13.5-12.3-14.5c-7.1-0.9-23,1.7-24.4,3.9
					c-1.4,2.1,14.2,10.6,16.4,13.2C966.3,1112.8,958,1128.8,964,1129.9z"/>
			</g>
			<g>
				<path class="st5" d="M1188,161.5c0,0-1.8,5.6-3.3,5.6c-1.5-0.1-5.3-2.2-5.3-2.2s-0.6-5.5,1.3-6
					C1182.5,158.4,1188,160.8,1188,161.5z"/>
				<path class="st6" d="M1229.7,83.8c0,0-31.8,2.1-62-22.2c-30.2-24.3-47.4-53.6-53.8-49.3c-6.5,4.3,19.2,25.4,19.2,25.4
					s-0.3,31.4,3.8,41.1c4.1,9.7,10.5,28,14.6,27.4c4.1-0.6-13.9-37.6-12.3-58.7c0,0,25,22.4,51,33.1
					C1216.1,91.5,1228.5,91.5,1229.7,83.8z"/>
				<path class="st5" d="M1293.7,81.9c0,0,43.9,15.5,43.9,26.8c-0.1,11.3-19.5,13.5-22.6,14.5c0,0,11.9,21,6.4,28.5
					c-5.5,7.5-24.7,0.5-28-0.6c0,0,1.2,10.6-5.9,11.5c-7,0.9-26.2-16.4-29.2-21.6C1255.3,135.9,1264.3,81.8,1293.7,81.9z"/>
				<g>
					<g>
						<path class="st4" d="M1333.5,137.7c-1.8-0.5-2.7-2.4-2.2-4.2c0.5-1.8,2.4-2.7,4.2-2.2c1.8,0.5,2.7,2.4,2.2,4.2
							C1337.1,137.3,1335.2,138.3,1333.5,137.7z"/>
						<g>
							<path class="st4" d="M1335,133.8c-10.8-7.5-27.9-16.1-41.4-15.1c-1.1,0.1-1.2,1.9-0.1,1.8c13.1-0.9,30,7.7,40.5,14.9
								C1334.9,135.9,1335.9,134.4,1335,133.8L1335,133.8z"/>
						</g>
					</g>
					<g>
						<path class="st4" d="M1322.5,151.6c-1.8-0.5-2.7-2.4-2.2-4.2c0.5-1.8,2.4-2.7,4.2-2.2c1.8,0.5,2.7,2.4,2.2,4.2
							C1326.1,151.2,1324.2,152.2,1322.5,151.6z"/>
						<g>
							<path class="st4" d="M1323.9,147.7c-11.4-7.8-27.8-10.9-37.4-21c-0.8-0.8-2.1,0.4-1.3,1.2c9.7,10.3,26.2,13.4,37.7,21.3
								C1323.9,149.8,1324.9,148.3,1323.9,147.7L1323.9,147.7z"/>
						</g>
					</g>
					<g>
						<path class="st4" d="M1327,121c-1.8,0-3.3-1.5-3.3-3.3c0-1.8,1.5-3.3,3.3-3.3c1.8,0,3.3,1.5,3.3,3.3
							C1330.3,119.5,1328.8,121,1327,121z"/>
						<g>
							<path class="st4" d="M1327.3,116.8c-12.7-3.9-31.5-7.1-44.2-2.1c-1.1,0.4-0.2,2,0.8,1.6c12-4.7,31-1.5,42.9,2.2
								C1327.8,118.9,1328.3,117.2,1327.3,116.8L1327.3,116.8z"/>
						</g>
					</g>
					<g>
						<path class="st4" d="M1306.6,154.4c-1.6-0.9-2.1-3-1.2-4.6c0.9-1.6,3-2.1,4.6-1.2c1.6,0.9,2.1,3,1.2,4.6
							C1310.2,154.8,1308.1,155.3,1306.6,154.4z"/>
						<g>
							<path class="st4" d="M1308.9,150.9c-8.7-8-25.2-17.8-26.5-30.6c-0.1-1.1-1.8-0.7-1.7,0.4c1.4,13.4,17.9,23.1,26.9,31.4
								C1308.4,152.9,1309.7,151.7,1308.9,150.9L1308.9,150.9z"/>
						</g>
					</g>
					<g>
						<path class="st4" d="M1318.8,132.3c-1.5-1-3.6-0.7-4.6,0.8c-1,1.5-0.7,3.6,0.8,4.6c1.5,1,3.6,0.7,4.6-0.8
							C1320.7,135.4,1320.3,133.3,1318.8,132.3z"/>
						<g>
							<path class="st4" d="M1317.1,134.2c-11.9-3.7-29.3-11.8-36.6-22.5c-0.6-0.9-2.2-0.1-1.6,0.8c7.6,11.3,24.9,19.4,37.6,23.4
								C1317.7,136.2,1318.2,134.5,1317.1,134.2L1317.1,134.2z"/>
						</g>
					</g>
					<g>
						<path class="st4" d="M1296.6,149.2c-0.8-1.6-2.8-2.3-4.5-1.5c-1.6,0.8-2.3,2.8-1.5,4.5c0.8,1.6,2.8,2.3,4.5,1.5
							C1296.8,152.8,1297.4,150.8,1296.6,149.2z"/>
						<g>
							<path class="st4" d="M1294.3,150.1c-5.1-5.2-9.2-11.4-12.9-17.6c-3.5-5.8-7.9-12.8-8.5-19.7c-0.1-1.1-1.9-1.2-1.8-0.1
								c0.6,6.8,4.5,13.3,7.8,19.1c3.9,6.8,8.5,13.7,14,19.4C1293.8,152.1,1295.1,150.9,1294.3,150.1L1294.3,150.1z"/>
						</g>
					</g>
				</g>
				<path class="st2" d="M1243.9,81.7c0,0,17.6-13,40.6-14c23-0.9,36.4,6.4,35.4,9.7c-1,3.3-24.6,17.9-31.2,17.2
					c0,0,24.4,23,20.4,36.6s-33.6,5.7-43.6,0.8c0,0,13.7,29.8,9,34.7c-4.6,4.8-36.3-34.6-40.8-57
					C1229.4,87.5,1243.9,81.7,1243.9,81.7z"/>
				<g>
					<path class="st2" d="M1164.4,107.4c0,0,13.3,6.3,21.1,14.7c7.8,8.4,11.2,25.5,8.7,33.8c-2.6,8.3-6.1,9.9-8.1,9.3
						c-2-0.6-5.6-4.3-5.6-4.3s2.1,3.5,0.7,5.1c-1.4,1.6-17.4-1.4-24.7-8.9c-7.3-7.4-13.1-20.7-9-34.4
						C1151.6,109,1158.8,104.4,1164.4,107.4z"/>
					<path class="st5" d="M1180.4,160.8c0,0-22.1-14.7-23.7-25.1c-1.5-10.5-1.7-0.9-1.2,0.8c1.8,6,4.7,9.7,10.3,14.5
						C1171.6,155.7,1179.5,160.9,1180.4,160.8z"/>
					<path class="st5" d="M1175.9,124.8c0,0-14.6-8-18-13.7c-3.4-5.8-1.4,2.3,3.4,5.8C1166.1,120.3,1174.8,125.6,1175.9,124.8z"/>
					<path class="st4" d="M1173.9,111.3c-1.1-4.3-11.2-16.7-19.2-16.5c-8,0.2-12.3,4.2-13,9.7c-0.7,5.5,1.8,22.6,3.5,25.7
						c1.7,3.1,10-3.8,12.1-16.7C1157.3,113.5,1176.1,119.4,1173.9,111.3z"/>
					<path class="st5" d="M1158.1,119c0,0,1.2,5.6,3.2,8.3c1.9,2.7-2.4-0.6-3.2-4.6C1157.3,118.6,1157.8,117.7,1158.1,119z"/>
				</g>
				<path class="st5" d="M1284.2,91.3c0,0-24.1-5.2-35.6-4c-11.5,1.1-6.2-0.9-2.2-1.3C1260.3,84.6,1277.4,89.1,1284.2,91.3z"/>
				<path class="st5" d="M1233,102.9c0,0,11.1,13.5,19.9,18.8c8.7,5.3,2,2.6-2,0C1246.8,119.2,1233.4,107.2,1233,102.9z"/>
				<path class="st5" d="M1257.5,97.8c0,0-19.4-5.8-22.2-4c-2.8,1.8,1.4,0.3,5.3,1C1244.5,95.5,1257.9,98.9,1257.5,97.8z"/>
				<path class="st4" d="M1252.5,77.2c-3-5.4-25.8-3-31.4,4.6c-4.8,6.5-7.2,12.6-3.5,18.7c3.7,6.1,15.8,16.8,18.4,16.5
					c2.5-0.3-0.7-17.8-0.1-21C1237.7,86.2,1255.4,82.5,1252.5,77.2z"/>
			</g>
			<g>
				<path class="st5" d="M327.4,1000.1c0,0-3.3-4.9-2.3-6c1-1.1,5-2.8,5-2.8s4.7,3,3.9,4.7C333.2,997.7,327.9,1000.6,327.4,1000.1z"
					/>
				<path class="st6" d="M362.3,1081.1c0,0,18.2-26.2,56-34.7c37.8-8.6,71.4-3.7,72.1-11.5s-31.9-0.8-31.9-0.8s-24.4-19.8-34.6-22.7
					c-10.1-2.9-28.5-9.2-30.6-5.7c-2.1,3.6,38.1,12.5,53.6,27c0,0-33.1,5.6-57.7,19.3C364.6,1065.6,357,1075.3,362.3,1081.1z"/>
				<path class="st5" d="M323.8,1132.4c0,0-39.5,24.7-48.3,17.6c-8.8-7.1,1.6-23.7,2.7-26.8c0,0-23.8-3.8-26.3-12.7
					c-2.5-9,15-19.7,17.9-21.5c0,0-9-5.7-5.3-11.8s29.1-10.3,35.1-9.4C305.5,1068.8,342.3,1109.4,323.8,1132.4z"/>
				<g>
					<g>
						<path class="st4" d="M255.4,1128.8c1.5-1,3.6-0.6,4.6,0.9c1,1.5,0.6,3.6-0.9,4.6c-1.5,1-3.6,0.6-4.6-0.9
							C253.5,1131.9,253.9,1129.8,255.4,1128.8z"/>
						<g>
							<path class="st4" d="M257.6,1132.4c12.6-3.8,30-11.8,37.6-23c0.6-0.9-0.7-2.1-1.4-1.2c-7.4,10.8-24.7,18.7-36.8,22.4
								C255.9,1131,256.5,1132.7,257.6,1132.4L257.6,1132.4z"/>
						</g>
					</g>
					<g>
						<path class="st4" d="M251.4,1111.5c1.5-1,3.6-0.6,4.6,0.9c1,1.5,0.6,3.6-0.9,4.6c-1.5,1-3.6,0.6-4.6-0.9
							C249.5,1114.6,249.9,1112.5,251.4,1111.5z"/>
						<g>
							<path class="st4" d="M253.5,1115.1c13.2-4.1,25.8-15,39.7-16.2c1.1-0.1,1-1.9-0.1-1.8c-14.1,1.2-26.8,12.2-40.1,16.3
								C251.9,1113.7,252.5,1115.4,253.5,1115.1L253.5,1115.1z"/>
						</g>
					</g>
					<g>
						<path class="st4" d="M272.6,1134.1c1.1-1.4,3.2-1.7,4.7-0.5c1.4,1.1,1.7,3.2,0.5,4.7c-1.1,1.4-3.2,1.7-4.7,0.5
							C271.6,1137.6,271.4,1135.5,272.6,1134.1z"/>
						<g>
							<path class="st4" d="M275.7,1136.9c11-7.5,25.2-20.3,29.2-33.3c0.3-1.1-1.4-1.4-1.7-0.3c-3.8,12.4-18.1,25.2-28.4,32.2
								C273.7,1136.1,274.7,1137.5,275.7,1136.9L275.7,1136.9z"/>
						</g>
					</g>
					<g>
						<path class="st4" d="M259.1,1097.3c1.7-0.7,3.6,0.2,4.3,1.9c0.7,1.7-0.2,3.6-1.9,4.3c-1.7,0.7-3.6-0.2-4.3-1.9
							C256.6,1099.9,257.4,1098,259.1,1097.3z"/>
						<g>
							<path class="st4" d="M260.4,1101.3c11.7-1.8,29.6-8.6,40.5-1.7c1,0.6,1.7-1,0.8-1.6c-11.4-7.3-29.2-0.4-41.3,1.5
								C259.2,1099.7,259.3,1101.5,260.4,1101.3L260.4,1101.3z"/>
						</g>
					</g>
					<g>
						<path class="st4" d="M268.9,1120.6c1.8-0.5,2.7-2.4,2.2-4.1s-2.4-2.7-4.1-2.2c-1.8,0.5-2.7,2.4-2.2,4.1
							C265.2,1120.2,267.1,1121.2,268.9,1120.6z"/>
						<g>
							<path class="st4" d="M268.4,1118.2c10.3-7,27.5-15.6,40.4-14.6c1.1,0.1,1.5-1.7,0.3-1.7c-13.6-1.1-30.7,7.4-41.7,14.9
								C266.4,1117.4,267.4,1118.8,268.4,1118.2L268.4,1118.2z"/>
						</g>
					</g>
					<g>
						<path class="st4" d="M269.4,1092.8c1.8,0.4,3.6-0.8,3.9-2.6c0.4-1.8-0.8-3.6-2.6-3.9c-1.8-0.4-3.6,0.8-3.9,2.6
							C266.5,1090.6,267.6,1092.4,269.4,1092.8z"/>
						<g>
							<path class="st4" d="M270.2,1090.4c7.2-0.7,14.6-0.1,21.8,0.8c6.7,0.8,14.9,1.8,20.7,5.6c0.9,0.6,2.1-0.7,1.2-1.4
								c-5.7-3.8-13.2-4.8-19.8-5.8c-7.8-1.2-16-1.9-23.9-1.1C268.9,1088.7,269,1090.5,270.2,1090.4L270.2,1090.4z"/>
						</g>
					</g>
				</g>
				<path class="st2" d="M355,1093.5c0,0-0.8,21.9-14.4,40.5c-13.6,18.6-27.6,24.5-29.6,21.6c-2-2.9,1.3-30.4,6-35.1
					c0,0-33.2,4.8-41.4-6.8c-8.2-11.6,16.5-29.9,26.5-34.6c0,0-31.9-7.9-32.8-14.5c-0.9-6.6,49.7-6.9,70,3.6
					C359.5,1078.5,355,1093.5,355,1093.5z"/>
				<g>
					<path class="st2" d="M384.4,1015.3c0,0-13.2,6.5-24.6,7.3c-11.4,0.9-27-7.1-31.8-14.3c-4.9-7.2-4-10.9-2.2-12.1
						c1.7-1.2,6.9-1.7,6.9-1.7s-4.1-0.5-4.5-2.6c-0.4-2.1,12-12.8,22.3-13.8c10.3-1.1,24.3,2.6,32.5,14.4
						C391.1,1004.3,390.2,1012.8,384.4,1015.3z"/>
					<path class="st5" d="M332.7,994.6c0,0,25.2-8.2,34.4-2.9c9.1,5.3,1.8-0.7,0.1-1.4c-5.8-2.4-10.5-2.4-17.8-0.9
						S333.2,993.8,332.7,994.6z"/>
					<path class="st5" d="M363.6,1013.4c0,0,15.3-6.5,21.9-5.5s-1-2.5-6.6-1C373.2,1008.5,363.7,1012.1,363.6,1013.4z"/>
					<path class="st4" d="M375.5,1020.4c4.1,1.8,20.1,1.6,24.9-4.8c4.8-6.4,4.4-12.2,0.5-16.2c-3.9-3.9-18.8-12.7-22.3-13.2
						c-3.5-0.6-3.3,10.1,5.6,19.8C384.1,1006,367.7,1016.9,375.5,1020.4z"/>
					<path class="st5" d="M379.3,1003.2c0,0-5.1-2.5-8.4-2.7c-3.3-0.2,2-1.5,5.6,0.4C380,1002.8,380.5,1003.7,379.3,1003.2z"/>
				</g>
				<path class="st5" d="M322.4,1119.1c0,0,19-15.6,25.3-25.3c6.3-9.7,4.6-4.3,2.4-0.9C342.6,1104.6,328.4,1115.1,322.4,1119.1z"/>
				<path class="st5" d="M345.2,1071.8c0,0-17.5,0.3-27.1,3.8c-9.6,3.5-3.2-0.1,1.3-1.6C323.9,1072.5,341.6,1069.4,345.2,1071.8z"/>
				<path class="st5" d="M334,1094.1c0,0,16.6-11.6,16.9-14.9c0.3-3.3-1.1,0.9-4,3.5C343.9,1085.4,332.8,1093.7,334,1094.1z"/>
				<path class="st4" d="M353.2,1103c6.1,1,18.4-18.3,16-27.4c-2.1-7.8-5.4-13.5-12.5-14.3c-7.1-0.9-23,1.9-24.3,4.1
					c-1.4,2.2,14.3,10.5,16.5,13C355.3,1085.9,347.3,1102,353.2,1103z"/>
			</g>
			<g>
				<path class="st2" d="M1004.2,335.9c-11.7,1.4-23.9-0.6-25.5-6.1c-1.6-5.5-12-33.9-14.2-43.6c-2.3-9.7-0.6-35.5,12.6-53.3
					s35.2-19.4,48.1-29.1c12.9-9.7,5.8-17.1,15.2-13.9c9.4,3.2,30.8,41.6,27.8,69.8C1063.3,304.6,1028.1,333,1004.2,335.9z"/>
				<path class="st5" d="M1047.1,242.5c-1.9,5.1-11.6,60-26,70.1c-14.4,10.1-25.7,12.2-22,13.2s25.7-6.7,33.4-23.3
					C1040.1,286,1048.2,239.7,1047.1,242.5z"/>
				<path class="st5" d="M995.2,317.2c0,0,15.3-13.6,18.4-44.8c0.7-6.8,2.1-2,0.8,6.8C1010,306.5,998.9,319,995.2,317.2z"/>
			</g>
			<g>
				<path class="st2" d="M444,1305.5c-5.1,7.4-12.5,13.4-16.5,11.6c-4-1.9-25.6-10.3-32.3-13.9c-6.7-3.6-20.7-17.6-24.2-34.3
					c-3.5-16.6,6.7-30.1,7.7-42.4c1-12.3-6.9-12-0.3-15.8c6.6-3.7,39.5,3.4,54.2,19.4C455.9,1255.6,454.4,1290.3,444,1305.5z"/>
				<path class="st5" d="M412,1233.5c1.9,3.7,28.6,37.1,27.1,50.5c-1.5,13.4-6,21-3.6,19.3c2.4-1.6,9.2-18.2,3.5-31
					C433.4,1259.6,410.9,1231.4,412,1233.5z"/>
				<path class="st5" d="M428.6,1301.2c0,0-0.1-15.7-16.4-33.3c-3.6-3.8-0.1-2.3,4.3,3C430,1287.3,431.5,1299.9,428.6,1301.2z"/>
			</g>
			<g>
				<path class="st2" d="M1296.8,994.8c2.1,11.5,0.8,23.9-4.6,25.8c-5.4,1.9-33.2,13.9-42.7,16.8c-9.5,2.8-35.4,2.7-53.9-9.4
					s-21.4-34-31.9-46.3c-10.4-12.3-17.4-4.8-14.8-14.3c2.7-9.5,39.7-33.2,68-31.8C1262,937.6,1292.5,971.1,1296.8,994.8z"/>
				<path class="st5" d="M1201,957.5c5.2,1.6,60.6,8.1,71.5,21.8c10.9,13.8,13.7,25,14.4,21.2c0.7-3.7-8.2-25.3-25.2-31.9
					C1244.8,961.9,1198.1,956.6,1201,957.5z"/>
				<path class="st5" d="M1278.6,1004.9c0,0-14.5-14.5-45.8-15.7c-6.8-0.3-2.1-2,6.7-1.2C1267.1,990.7,1280.2,1001,1278.6,1004.9z"
					/>
			</g>
			<g>
				<path class="st2" d="M456,89.3c2.6-5.8,6.9-10.9,9.9-10.1c3,0.8,19,3.9,24.1,5.5c5.1,1.6,16.6,9.6,21.1,20.6
					c4.5,11-0.8,21.6,0.1,30.3c0.9,8.7,6.3,7.4,2.2,10.9c-4.1,3.4-27.7,2.7-39.9-6.5C454.1,125.3,450.7,101.2,456,89.3z"/>
				<path class="st5" d="M487.2,135c-1.8-2.3-24.5-22-25.2-31.5c-0.7-9.4,1.5-15.3,0-13.8c-1.4,1.4-4,13.7,1.5,21.9
					C469.1,119.7,488.2,136.3,487.2,135z"/>
				<path class="st5" d="M467.1,90.3c0,0,2,10.9,15.6,20.9c3,2.2,0.3,1.5-3.3-1.5C468,100.1,465.3,91.6,467.1,90.3z"/>
			</g>
			<g>
				<path class="st2" d="M190.2,900.9c9.5,3.6,18,10,17.1,14.9c-1,4.8-4.4,30.7-6.5,39.1c-2.1,8.3-13.7,27.5-30.9,35.8
					c-17.2,8.3-34.7,0.8-48.5,3c-13.8,2.3-11.3,10.8-17.2,4.6c-5.9-6.2-7-44.1,6.6-64.5C132.4,901.3,170.7,893.6,190.2,900.9z"/>
				<path class="st5" d="M120,955.3c3.5-3.1,32.9-41.3,47.9-43.3c15.1-2,24.6,0.9,22.1-1.3c-2.4-2.2-22.4-5.1-34.8,4.5
					C142.8,924.8,118.1,957,120,955.3z"/>
				<path class="st5" d="M189.6,918.8c0,0-17.2,4.3-32,27c-3.2,4.9-2.4,0.7,2.1-5.5C174,921.1,187.5,916,189.6,918.8z"/>
			</g>
			<g>
				<path class="st6" d="M1240.7,1237.8c-11.9,1.8,37.5-17,52-27c14.5-10,53.5-51.8,59-61.7c5.4-9.9-2.4-10.2-5.2-5
					c-2.8,5.1-27.3,34.7-41.4,45.8s-52.4,31.9-66.9,37.1c-9.2,3.3-28.2,6.6-44.2,9.4c1.2-3.7,2.7-8.6,3.7-11.5
					c1.7-5.3,3-6.5-1.5-7.9c-3.3-1.1-7.7,13.1-9.9,20.8c-5.9,1.1-10.9,2.1-14.2,3c-12.8,3.4-49.7,7-63,9.6c-11.2,2.1-43.1-7.8-54-9
					c-10.9-1.2-19.8,1.9-21.9,8.4c-2.1,6.5,1.6,9.2,12.5,12.7c10.9,3.5,42,1.8,50.6,1.9c8.6,0.1,27.7-6.5,31.3-3.5
					c3.6,3,22,22.5,34.2,29.8c12.3,7.3,37.2,28.1,40.6,31.8c3.3,3.7,37.4,12.7,42.9,10.7c5.5-2-9-7-18.8-9.4
					c-9.8-2.4-24.4-12-29.1-17.2c-4.7-5.3,18.7-1.9,12.2-6.3c-6.5-4.3-15.7,0.7-20.6-2.6c-5-3.3-43.1-32.5-46-36.4
					c-2.9-3.9,64.2-13.3,71.9-15c7.7-1.7,51.1,0.2,57.9,4.2c6.8,4.1,17.8,29.8,22.8,32.9c5,3.1,11.7,3.4,7.5-1
					c-4.2-4.4-28.4-31.3-19.9-32c8.5-0.7,34.3,5.7,38.4,1.4C1325.5,1247.2,1252.6,1235.9,1240.7,1237.8z"/>
				<g>
					<path class="st2" d="M1204.2,1215.6c0,0,8.2-5.9,12.5-12.5s4.5-18.6,1.8-23.8c-2.7-5.3-5.3-6-6.6-5.3c-1.3,0.7-3.3,3.6-3.3,3.6
						s1-2.6-0.1-3.6c-1.2-0.9-11.6,3-15.6,8.9c-4,5.9-6.4,15.5-2,24.3C1195.4,1216,1200.8,1218.2,1204.2,1215.6z"/>
					<path class="st5" d="M1208.6,1177.6c0,0-13.2,12.5-13,19.8c0.2,7.2-1,0.8-0.9-0.4c0.5-4.3,2-7.1,5.3-11
						C1203.3,1182,1208,1177.6,1208.6,1177.6z"/>
					<path class="st5" d="M1209.9,1202.4c0,0-8.9,7.1-10.5,11.4c-1.6,4.3-1.2-1.4,1.6-4.3C1203.8,1206.6,1209.1,1202,1209.9,1202.4z
						"/>
					<path class="st4" d="M1210.2,1211.8c-0.2,3-5.6,12.6-11,13.4c-5.4,0.8-8.8-1.4-9.9-5c-1.1-3.6-1.5-15.5-0.7-17.8
						c0.8-2.3,7.2,1.3,10.1,9.8C1198.7,1212.3,1210.6,1206,1210.2,1211.8z"/>
					<path class="st5" d="M1198.6,1208.5c0,0,0.2-3.9,1.1-6c1-2-1.5,0.7-1.6,3.5C1198.1,1208.8,1198.5,1209.4,1198.6,1208.5z"/>
				</g>
				<g>
					<path class="st2" d="M1315.1,1254.7c0,0,8.5,5.4,16.2,6.9c7.7,1.5,18.9-2.7,22.8-7.2c3.9-4.5,3.6-7.1,2.5-8.1
						c-1.1-0.9-4.6-1.7-4.6-1.7s2.8,0,3.3-1.4c0.4-1.4-7.2-9.6-14.1-11.2c-7-1.5-16.8-0.1-23.3,7.3
						C1311.4,1246.7,1311.4,1252.6,1315.1,1254.7z"/>
					<path class="st5" d="M1352,1244.6c0,0-16.6-7.5-23.2-4.6c-6.6,2.9-1.2-0.6,0-1c4.2-1.2,7.4-0.8,12.2,0.8
						C1345.9,1241.4,1351.7,1244.1,1352,1244.6z"/>
					<path class="st4" d="M1320.8,1258.9c-2.9,0.9-13.8-0.5-16.6-5.2c-2.8-4.7-2-8.7,0.9-11.1c2.9-2.4,13.8-7.2,16.2-7.3
						c2.5-0.1,1.4,7.2-5.3,13.1C1316.1,1248.4,1326.4,1257.1,1320.8,1258.9z"/>
					<path class="st5" d="M1318.7,1249c0,0,7.2,0.8,10.4,0.7c3.2-0.1,4.7-1.1,4.5-0.5C1333.5,1249.7,1325.5,1251.4,1318.7,1249z"/>
					<path class="st5" d="M1320.1,1251.2c0,0,5.1,3,8.5,4C1331.9,1256.2,1325.2,1256,1320.1,1251.2z"/>
				</g>
			</g>
			<g>
				<path class="st6" d="M955.3,577.7c-8.7-8.3,36.3,19.5,53,24.9c16.8,5.4,73.6,11.1,84.8,9.4c11.2-1.7,6.6-8.1,0.9-7.2
					c-5.8,0.9-44.2-0.6-61.5-5.1c-17.3-4.5-57.2-22.3-70-30.7c-8.2-5.3-22.4-18.4-34.3-29.4c3.7-1.3,8.5-3.1,11.4-4.1
					c5.3-1.9,7-1.5,5.4-6c-1.2-3.3-15.1,1.8-22.6,4.8c-4.5-4-8.3-7.4-11-9.5c-10.5-8.1-35.8-35.3-45.8-44.2
					c-8.5-7.6-20-39-25.6-48.4c-5.6-9.4-13.6-14.6-20-12.3s-6.3,6.8-2.5,17.6c3.8,10.8,24.1,34.5,29.2,41.4s22,18.1,21.8,22.7
					c-0.2,4.6-4.5,31.1-2.9,45.3c1.6,14.2,0.2,46.7-0.7,51.6c-0.9,4.9,12.6,37.4,17.5,40.6s0.1-11.5-3.9-20.7
					c-4-9.2-5.3-26.7-4-33.6c1.3-6.9,12.9,13.7,12.4,5.9c-0.5-7.8-10.1-12-10.5-18c-0.4-6-0.3-54,1.1-58.7
					c1.4-4.7,49.6,42.9,55.6,48c6,5.1,30.9,40.7,31.8,48.6c0.9,7.9-12.9,32.2-12.3,38.1c0.6,5.9,4.4,11.4,5.3,5.3
					c0.9-6,7.7-41.6,13.4-35.2c5.7,6.4,16.3,30.8,22.2,31.3C999.3,650.8,964,586,955.3,577.7z"/>
				<g>
					<path class="st2" d="M950.8,535.2c0,0,9.7,3,17.5,2.4c7.8-0.6,17.5-7.7,20.1-13c2.5-5.4,1.5-7.8,0.2-8.4
						c-1.3-0.6-4.9-0.4-4.9-0.4s2.7-0.8,2.8-2.3c0-1.5-9.5-7.4-16.6-7c-7.1,0.4-16.2,4.3-20.5,13.2
						C945.1,528.4,946.6,534.1,950.8,535.2z"/>
					<path class="st5" d="M983.7,515.6c0,0-18-2.9-23.6,1.7c-5.6,4.6-1.3-0.3-0.2-0.9c3.7-2.2,6.9-2.7,12-2.5
						C976.9,514.1,983.3,515.2,983.7,515.6z"/>
					<path class="st5" d="M964.8,531.7c0,0-11.1-2.8-15.5-1.4c-4.4,1.4,0.4-1.8,4.4-1.4C957.7,529.4,964.5,530.8,964.8,531.7z"/>
					<path class="st4" d="M957.5,537.6c-2.6,1.7-13.4,3.2-17.4-0.6c-3.9-3.8-4.3-7.8-2.1-10.9c2.2-3.1,11.4-10.6,13.7-11.3
						c2.3-0.8,3.3,6.5-1.7,14C950.1,528.8,962.3,534.5,957.5,537.6z"/>
					<path class="st5" d="M953.1,526.4c0,0,3.2-2.2,5.4-2.7c2.2-0.5-1.5-0.8-3.7,0.9C952.5,526.2,952.3,526.9,953.1,526.4z"/>
				</g>
				<g>
					<path class="st2" d="M987,647.1c0,0,0.9,10.1,4.3,17.1c3.5,7,13.7,13.4,19.6,13.7c5.9,0.3,7.8-1.5,7.9-2.9
						c0.1-1.4-1.4-4.7-1.4-4.7s1.7,2.2,3.1,1.7c1.4-0.5,3.3-11.5,0.3-18c-3-6.5-10.1-13.4-19.9-14.1
						C991.1,639.3,986.4,642.8,987,647.1z"/>
					<path class="st5" d="M1017.4,670.3c0,0-4.1-17.7-10.4-21.3c-6.3-3.5-0.2-1.3,0.8-0.5c3.4,2.6,5.1,5.4,6.8,10.2
						C1016.3,663.4,1017.7,669.7,1017.4,670.3z"/>
					<path class="st4" d="M987.2,654.2c-2.5-1.8-8-11.3-5.9-16.3c2.1-5.1,5.7-6.9,9.4-6c3.7,0.9,14.1,6.6,15.6,8.5
						c1.6,1.9-4.8,5.5-13.6,3.7C992.6,644,991.9,657.5,987.2,654.2z"/>
					<path class="st5" d="M993.7,646.5c0,0,3.7,6.2,5.8,8.7c2.1,2.5,3.7,3,3.2,3.3C1002.1,658.7,996,653.3,993.7,646.5z"/>
					<path class="st5" d="M992.8,648.9c0,0,0.7,5.9,2,9.1C996,661.3,992.1,655.9,992.8,648.9z"/>
				</g>
			</g>
			<g>
				<path class="st6" d="M135.4,619.2c3.2,11.6-21.2-35.3-32.9-48.5c-11.7-13.3-57.6-47.2-68.1-51.4c-10.5-4.3-9.8,3.6-4.4,5.7
					c5.4,2.2,37.7,23.1,50.3,35.8c12.6,12.7,37.8,48.4,44.6,62.1c4.3,8.7,9.8,27.3,14.5,42.8c-3.8-0.7-8.8-1.7-11.9-2.3
					c-5.5-1.1-6.8-2.2-7.7,2.5c-0.7,3.4,13.9,6.2,21.9,7.4c1.8,5.7,3.3,10.6,4.6,13.8c4.9,12.3,12.8,48.6,16.8,61.4
					c3.4,10.9-2.7,43.7-2.7,54.7c0,11,4.2,19.5,10.9,20.8c6.7,1.3,8.9-2.6,11.1-13.9c2.2-11.3-3.1-41.9-4-50.5
					c-0.9-8.6-9.7-26.8-7.1-30.7c2.6-3.9,19.8-24.4,25.6-37.5c5.9-13,23.6-40.2,26.9-44c3.3-3.7,8.3-38.6,5.7-43.9
					c-2.6-5.3-5.9,9.8-7.2,19.8c-1.2,10-9.1,25.6-13.8,30.9c-4.7,5.3-4.1-18.4-7.6-11.4c-3.6,7,2.5,15.5-0.2,20.8
					c-2.7,5.3-27.3,46.6-30.9,49.9c-3.6,3.3-20.7-62.2-23.2-69.7c-2.6-7.5-5.7-50.8-2.5-58c3.3-7.3,27.6-21.1,30.1-26.5
					c2.5-5.4,2-12-1.9-7.3c-3.9,4.7-27.8,31.8-29.5,23.5c-1.6-8.4,1.7-34.8-3.1-38.3C135,533.9,132.2,607.6,135.4,619.2z"/>
				<g>
					<path class="st2" d="M117.6,658.1c0,0-6.8-7.5-13.8-10.9c-7-3.4-19-2.4-23.9,1c-4.9,3.3-5.3,5.9-4.5,7.1c0.8,1.2,4,2.9,4,2.9
						s-2.7-0.7-3.5,0.5c-0.8,1.3,4.4,11.2,10.7,14.5c6.3,3.3,16.2,4.6,24.4-0.9C119.1,666.8,120.7,661.1,117.6,658.1z"/>
					<path class="st5" d="M79.4,658.1c0,0,14,11.6,21.2,10.6c7.2-1,1,0.9-0.3,0.9c-4.3,0-7.3-1.2-11.6-4
						C84.4,662.8,79.5,658.7,79.4,658.1z"/>
					<path class="st5" d="M103.9,654c0,0,8.1,8,12.6,9.1c4.5,1.1-1.3,1.4-4.5-1.1C108.8,659.5,103.6,654.8,103.9,654z"/>
					<path class="st4" d="M113.2,652.6c3.1-0.1,13.2,4.1,14.6,9.4c1.4,5.3-0.3,8.9-3.8,10.4c-3.5,1.5-15.2,3.3-17.6,2.7
						c-2.4-0.5,0.5-7.3,8.6-11.2C115,663.9,107.4,652.8,113.2,652.6z"/>
					<path class="st5" d="M111.2,664.5c0,0-3.9,0.3-6-0.5c-2.1-0.7,0.9,1.4,3.7,1.2C111.6,664.9,112.1,664.4,111.2,664.5z"/>
				</g>
				<g>
					<path class="st2" d="M143.7,543.4c0,0,4.4-9.1,5-16.9c0.6-7.8-4.9-18.5-9.8-21.8s-7.5-2.7-8.3-1.5c-0.8,1.2-1.2,4.7-1.2,4.7
						s-0.4-2.8-1.8-3.1c-1.5-0.3-8.7,8.2-9.4,15.3c-0.7,7.1,1.8,16.7,9.9,22.3C136.1,548,142,547.4,143.7,543.4z"/>
					<path class="st5" d="M129.4,507.9c0,0-5.6,17.3-1.9,23.6s-0.5,1.2-1,0.1c-1.6-4-1.7-7.2-0.7-12.2
						C126.8,514.4,128.8,508.2,129.4,507.9z"/>
					<path class="st4" d="M147.1,537.2c1.2,2.8,1.1,13.8-3.2,17.1s-8.4,3-11.1,0.4c-2.7-2.7-8.7-12.9-9.1-15.3
						c-0.4-2.4,7-2.3,13.6,3.8C137.3,543.1,144.8,531.9,147.1,537.2z"/>
					<path class="st5" d="M137.6,540.5c0,0-0.1-7.2-0.6-10.4c-0.5-3.2-1.7-4.5-1-4.4C136.6,525.7,139.1,533.5,137.6,540.5z"/>
					<path class="st5" d="M139.6,538.8c0,0,2.4-5.4,3-8.9C143.2,526.5,143.7,533.2,139.6,538.8z"/>
				</g>
			</g>
			<g>
				<path class="st5" d="M360.7,591.2c-7.8-3.6-19.3-20.6-23.2-34.8c-3.9-14.3,0.1-15.1-4-20.4c-4.1-5.3-8.1-2-7.5-8.6
					c0.6-6.5,29.1-21.6,50.7-16.3c21.6,5.3,33.5,12.5,37,26.7c0,0,2.1-13.2,10.2-28.5c8.1-15.3,43-22.4,48.9-22.4
					c5.9,0,12.4,6.1,14.7,11c2.2,4.9,0.4,16.3,3.7,22.6c3.3,6.3,7,24.3,1.6,33.9c-2.4,4.2-20.3,28.9-42.5,38.8
					C421.6,605.9,385.5,602.7,360.7,591.2z"/>
				<path class="st2" d="M457.3,575.2c3.3-3.6,7.7-7,13.6-9.5c23.7-10.2,31-17.9,36.4-24.4s8.7,2.6,8.7,10.6s-27.7,44.1-42.3,49.9
					c-14.6,5.8-22.2-0.4-26.2-2.6C447.7,599.2,447.5,586.1,457.3,575.2"/>
				<path class="st2" d="M405.7,602.6c1.1,2.2-3.7,24.2-8.8,23.8c-5-0.5-51-2-57-3c-16.6-2.7-22.8-21.5-30.5-32.9
					c-7.7-11.4-1.3-26.2,2.5-26.2c8.2,0,11.3,6.5,17.8,8.2c10.9,2.9,13.7,5.1,27.5,6.5C371,580.4,403.3,597.9,405.7,602.6z"/>
				<path class="st4" d="M446.3,564.4c-1.5,0.2-2.6,1.6-2.4,3.2c0,0.2,0.1,0.3,0.2,0.5c-3.3,3.5-5.7,7.7-7.2,12.2
					c-0.9-0.3-1.9-0.6-2.9-0.9c1.8-9,4.4-17.7,9.9-25.5c0.9,0.5,2,0.6,3,0c1.3-0.8,1.7-2.6,0.9-3.9c-0.8-1.3-2.6-1.7-3.9-0.9
					c-1.2,0.8-1.6,2.3-1,3.6c-5.7,8.1-8.4,17-10.3,26.4c-0.9-0.2-1.9-0.4-2.8-0.5c0.2-4.3-0.4-8.7-1.9-12.8c0.1-0.1,0.3-0.2,0.4-0.4
					c0.8-1.3,0.4-3.1-1-3.9c-1.3-0.8-3.1-0.4-3.9,1c-0.8,1.3-0.4,3.1,1,3.9c0.7,0.4,1.5,0.5,2.2,0.3c1.3,3.8,1.8,7.8,1.6,11.7
					c-0.9-0.1-1.8-0.2-2.6-0.2c-5.1-7-9.4-14.5-11.4-23.3c1-0.3,1.8-1.1,2-2.2c0.3-1.5-0.8-3-2.3-3.3c-1.5-0.3-3,0.8-3.3,2.3
					c-0.2,1.4,0.7,2.8,2,3.2c1.9,8.8,6.1,16.2,11.1,23.2c-0.8,0-1.7,0-2.5,0.1c-0.7,0-1.4,0.1-2,0.3c-3.7-4.8-8.6-8.7-14.3-10.8
					c0-0.2,0-0.4-0.1-0.6c-0.5-1.5-2.1-2.3-3.5-1.8c-1.5,0.5-2.3,2.1-1.8,3.5c0.5,1.5,2.1,2.3,3.5,1.8c0.8-0.2,1.3-0.8,1.7-1.5
					c5.1,2,9.5,5.5,12.9,9.7c-1.7,0.5-3.5,1.3-5.3,2.2c-5.1-1.6-10.6-2.3-15.7-2.5c-0.1-0.2-0.1-0.3-0.2-0.5
					c-0.9-1.3-2.6-1.6-3.9-0.7c-1.3,0.9-1.6,2.6-0.7,3.9c0.9,1.3,2.6,1.6,3.9,0.7c0.7-0.5,1.1-1.2,1.2-1.9c4.4,0.2,9.2,0.8,13.7,2
					C400.4,587.9,391,598,391,598c10.6,0.7,26.8-0.8,38.8-3.3c0.1,0.7,1.3,1,1.4,0.1c0-0.2,0.1-0.3,0.1-0.5
					c8.9-1.9,15.1-4.4,14.6-6.7c-0.6-2.6-3.5-5-7.7-6.8c1.4-4.2,3.6-8.2,6.6-11.5c0.6,0.5,1.3,0.7,2.1,0.6c1.5-0.2,2.6-1.6,2.4-3.2
					C449.2,565.3,447.8,564.2,446.3,564.4z"/>
				<path class="st2" d="M434.2,623.4c-16.4,3.7-47.7,4.4-51.4,0c-3.6-4.4-3.3-16.4,0-21.5s10.2-17.1,20.4-20.8
					c10.2-3.6,45.3,9.1,56.2,8.4c10.8-0.7,28.3,4.7,17.8,10.6C466.6,605.9,450.2,619.7,434.2,623.4z"/>
				<path class="st5" d="M385.9,597.4c2-1.4-7.9,15.4-4.1,20.3c3.7,4.9,12.1,8.1,10.9,8.5c-1.2,0.4-11.1-3.2-12.2-7.7
					C378.3,610,384.2,598.6,385.9,597.4z"/>
				<path class="st5" d="M424.8,623.5c0,0-9.7-0.3-14.8-3.5c-5.1-3.2-6.4-5.8-5.2-5.6c1.2,0.2,1.4,2.7,5.8,4.5
					C415,620.8,424.8,622.1,424.8,623.5z"/>
				<path class="st5" d="M458.4,591.7c7.3,1.1,17,1.9,17.7,4.3c0.6,2.4,3,0.7-0.1-2S456.9,591.4,458.4,591.7z"/>
			</g>
			<g>
				<path class="st5" d="M698.4,160.5c-5-8.7-4.6-33,1.4-49.3c6-16.3,10.4-14.5,10.1-22.4c-0.3-7.9-6.4-7.5-1.4-13.4
					c5-5.9,42.7-0.9,59.9,18.9c17.2,19.8,23.7,34.8,17.3,50.9c0,0,11-11.3,29.2-20.5c18.2-9.1,56.6,7.7,62.3,11.8
					c5.7,4,7.8,14.3,6.6,20.6c-1.2,6.2-10.7,15.9-11.9,24.2c-1.2,8.3-9.8,28.2-21.6,33.7c-5.2,2.4-39.3,14-67.3,8.3
					C747,216.1,714.5,188.4,698.4,160.5z"/>
				<path class="st2" d="M802.3,210.9c5.6-1.2,12.2-1.5,19.6,0.1c29.7,6.3,42,3.9,51.7,1.3c9.7-2.6,6.7,8.4,1.2,16.1
					c-5.5,7.7-56.7,23.5-74.7,19.2c-18-4.3-21.1-15.5-23.5-20.3C776.7,227.4,785.4,214.7,802.3,210.9"/>
				<path class="st2" d="M733.9,202.1c-0.5,2.9-20.1,20.8-24.6,16.9c-4.5-3.9-47.7-36.7-52.8-41.7c-14.1-13.9-7.3-36.2-6.9-52.5
					c0.3-16.2,16.6-26.1,20.3-23.5c7.9,5.6,6.4,14,11.5,20c8.6,10.2,9.7,14.2,22,25C715.8,157.1,734.9,195.9,733.9,202.1z"/>
				<path class="st4" d="M807,176.5c-1.7-0.1-3.1,1.2-3.4,2.8c-11,3.9-19.7,10.6-27.9,18.3c-0.7-0.8-1.5-1.6-2.4-2.4
					c3.2-4,5.5-8.6,6.9-13.5c0.2,0,0.4,0,0.6-0.1c1.7-0.7,2.4-2.7,1.7-4.4c-0.7-1.7-2.7-2.4-4.4-1.7c-1.7,0.7-2.4,2.7-1.7,4.4
					c0.4,0.9,1.1,1.5,1.9,1.8c-1.3,4.5-3.5,8.7-6.4,12.4c-0.8-0.7-1.6-1.4-2.4-2c-0.1-10.2,0.8-20.3,4.9-30.1
					c1.2,0.4,2.5,0.2,3.4-0.8c1.3-1.3,1.3-3.4,0-4.7c-1.3-1.3-3.4-1.3-4.7,0c-1.2,1.2-1.3,3.1-0.2,4.4c-4.1,9.7-5.2,19.7-5.2,29.9
					c-0.8-0.6-1.6-1.1-2.5-1.7c-0.7-0.4-1.4-0.8-2.2-1.1c-0.3-7.1-2.4-14.2-6.4-20.2c0.1-0.2,0.2-0.4,0.3-0.6
					c0.6-1.8-0.4-3.6-2.2-4.2c-1.8-0.6-3.6,0.4-4.2,2.2c-0.6,1.8,0.4,3.6,2.2,4.2c0.9,0.3,1.8,0.1,2.6-0.3
					c3.5,5.4,5.5,11.7,5.8,18.1c-2-0.7-4.3-1.2-6.6-1.5c-3.8-5-8.7-9.4-13.4-13.2c0-0.2,0.1-0.4,0.1-0.6c0-1.8-1.4-3.3-3.3-3.4
					c-1.8,0-3.3,1.4-3.4,3.3c0,1.8,1.4,3.3,3.3,3.4c1,0,1.8-0.4,2.5-1.1c4.1,3.2,8.3,7,11.8,11.3c-13.4-1.1-29.4,2.2-29.4,2.2
					c9.6,7.9,26.3,17.4,39.6,23.2c-0.4,0.8,0.6,1.8,1.3,1.1c0.1-0.1,0.3-0.3,0.4-0.4c9.8,4.2,17.5,6.1,18.6,3.5
					c1.2-2.9,0.1-7.2-2.8-11.8c4.2-3.1,9.1-5.4,14.2-6.5c0.2,0.8,0.8,1.6,1.6,2c1.6,0.8,3.6,0.2,4.5-1.4c0.8-1.6,0.2-3.6-1.4-4.5
					c-1.6-0.8-3.6-0.2-4.5,1.4c-0.1,0.2-0.1,0.4-0.2,0.6c-5.5,1.1-10.7,3.5-15.2,6.8c-0.7-1-1.4-1.9-2.2-2.9
					c7.9-7.4,16.3-14,26.9-17.8c0.5,1.1,1.5,1.9,2.9,2c1.8,0.1,3.4-1.3,3.5-3.1C810.3,178.2,808.9,176.6,807,176.5z"/>
				<path class="st2" d="M747.2,241.5c-18.3-7.6-48.9-28.3-49.4-35c-0.5-6.7,8-18,14.6-20.7s21.5-9.5,33.8-6.1
					c12.3,3.4,37.4,39.7,48.3,46.3c10.9,6.7,24,23.9,9.9,22.3C790.3,246.7,765.1,248.9,747.2,241.5z"/>
				<path class="st5" d="M718.5,183.6c2.9,0-18,9.5-17.8,16.7c0.2,7.3,6.1,16,4.7,15.6c-1.4-0.4-8.5-10.6-6.5-15.7
					C702.6,190.6,716,183.6,718.5,183.6z"/>
				<path class="st5" d="M738.1,235.2c0,0-9.1-6.9-11.8-13.5s-2.2-9.9-1.2-8.9c1,1-0.5,3.6,2.5,8.3
					C730.5,225.9,739.1,233.9,738.1,235.2z"/>
				<path class="st5" d="M792.1,227.4c6.3,6,15.1,13.5,14.1,16.2c-1,2.7,2.4,2.8,1.2-2C806.2,236.8,790.8,226.2,792.1,227.4z"/>
			</g>
			<g>
				<path class="st5" d="M1180.5,515.3c-10-1.2-29.2-16-38.7-30.6c-9.5-14.6-5.4-17-11.9-21.4c-6.5-4.5-9.9,0.7-11.6-6.9
					s24.8-34.8,51-36.7c26.1-1.9,42.1,1.8,51.2,16.5c0,0-2.5-15.6,1.1-35.7c3.6-20.1,40.1-40.7,46.7-42.9c6.6-2.1,16.1,2.3,20.4,7
					s6.4,18.1,12.3,24c5.9,5.9,16.7,24.7,14.1,37.5c-1.1,5.6-12.3,39.8-33.6,58.9C1254.2,509.7,1212.6,519.2,1180.5,515.3z"/>
				<path class="st2" d="M1283.2,462.3c2.4-5.3,6.1-10.6,11.8-15.6c22.9-20,28.3-31.3,32-40.6s10.7-0.3,13.6,8.7
					c2.9,9-15.1,59.5-29.3,71.3c-14.2,11.8-25.1,7.7-30.3,6.7C1281,492.7,1276,478.1,1283.2,462.3"/>
				<path class="st2" d="M1235.1,511.8c2,2.1,4.6,28.5-1.2,29.9c-5.8,1.3-57.9,16.3-65,17.3c-19.6,3-33.4-15.9-46.2-25.8
					s-11-28.9-6.7-30.3c9.2-3,15,3.2,22.9,2.7c13.3-0.7,17.2,0.7,33.2-2.7C1188.3,499.5,1230.8,507.3,1235.1,511.8z"/>
				<path class="st4" d="M1274.8,480.4c-1.6-2.7-5.8-4.4-11.1-4.8c0-5.3,1.1-10.5,3.3-15.3c0.8,0.3,1.8,0.3,2.6-0.1
					c1.7-0.8,2.3-2.8,1.6-4.4c-0.8-1.7-2.8-2.3-4.4-1.6c-1.7,0.8-2.3,2.8-1.6,4.4c0.1,0.2,0.3,0.3,0.4,0.5
					c-2.4,5.1-3.6,10.7-3.7,16.3c-1.2,0-2.4,0-3.6,0c-1.2-10.8-1.5-21.5,1.8-32.2c1.2,0.3,2.5-0.1,3.3-1.1c1.2-1.4,1-3.5-0.4-4.7
					c-1.4-1.2-3.5-1-4.7,0.4c-1.1,1.3-1,3.2,0.2,4.4c-3.5,11.1-3.3,22.2-2,33.3c-1.1,0.1-2.2,0.3-3.3,0.4c-1.3-4.9-3.6-9.6-6.7-13.6
					c0.1-0.2,0.2-0.4,0.3-0.6c0.4-1.8-0.7-3.6-2.5-4c-1.8-0.4-3.6,0.7-4,2.5c-0.4,1.8,0.7,3.6,2.5,4c0.9,0.2,1.8,0,2.6-0.5
					c2.9,3.8,4.9,8,6.1,12.5c-1,0.2-2.1,0.5-3.1,0.7c-8.3-6-15.8-12.8-21.2-22c1-0.7,1.6-1.9,1.4-3.2c-0.3-1.8-1.9-3.1-3.8-2.8
					c-1.8,0.3-3.1,1.9-2.8,3.8c0.2,1.7,1.7,2.9,3.4,2.8c5.3,9.1,12.7,16,20.8,22c-0.9,0.3-1.9,0.6-2.8,1c-0.7,0.3-1.5,0.6-2.2,1.1
					c-5.9-4-12.8-6.6-20-6.9c-0.1-0.2-0.1-0.4-0.3-0.6c-1.1-1.5-3.2-1.8-4.6-0.8c-1.5,1.1-1.8,3.2-0.8,4.6c1.1,1.5,3.2,1.8,4.6,0.8
					c0.8-0.6,1.2-1.4,1.3-2.3c6.4,0.4,12.7,2.6,18,6.2c-1.8,1.2-3.5,2.7-5.1,4.4c-6.3,0.1-12.8,1.3-18.6,2.9
					c-0.1-0.1-0.2-0.3-0.4-0.4c-1.5-1.1-3.5-0.9-4.7,0.6c-1.1,1.5-0.9,3.5,0.6,4.7c1.5,1.1,3.5,0.9,4.7-0.6c0.6-0.8,0.8-1.7,0.6-2.6
					c5-1.4,10.6-2.5,16.1-2.7c-8.9,10.1-15.8,24.8-15.8,24.8c12.1-3,29.7-10.6,42.3-17.8c0.4,0.8,1.8,0.6,1.7-0.4
					c0-0.2-0.1-0.4-0.1-0.5C1270.1,487.8,1276.3,482.8,1274.8,480.4z"/>
				<path class="st2" d="M1274.6,524.7c-17,10.1-51.9,22.2-57.6,18.6c-5.7-3.6-9.6-17.2-7.8-24.1c1.8-6.9,5.2-22.9,15.3-30.7
					c10.1-7.8,54.2-6.2,66.1-11c11.9-4.8,33.5-5,23.8,5.4C1304.7,493.3,1291.3,514.8,1274.6,524.7z"/>
				<path class="st5" d="M1211.1,513.1c1.7-2.3-3.2,20.1,2.7,24.3c6,4.2,16.4,4.7,15.3,5.6c-1.2,0.9-13.6,0.4-16.5-4.2
					C1207.2,530,1209.6,515.1,1211.1,513.1z"/>
				<path class="st5" d="M1264.1,528.3c0,0-11,3.2-17.9,1.4c-6.9-1.8-9.2-4.2-7.8-4.4c1.4-0.2,2.6,2.5,8.1,3
					C1252.2,528.8,1263.7,526.7,1264.1,528.3z"/>
				<path class="st5" d="M1290.2,480.4c8.5-1.5,19.8-4,21.4-1.6c1.6,2.4,3.7-0.3-0.9-2.2C1306.2,474.7,1288.5,480.7,1290.2,480.4z"
					/>
			</g>
			<g>
				<path class="st5" d="M620.8,1253.1c-6.2-8.3-8.6-33-4.5-50.4c4.2-17.4,8.8-16,7.6-24c-1.3-8-7.5-6.9-3-13.4
					c4.4-6.6,43.4-6,63.2,12.1c19.8,18.1,28.3,32.6,23.7,49.7c0,0,9.8-12.8,27.3-24.3c17.5-11.5,58.6,1.1,64.8,4.5
					c6.3,3.4,9.6,13.7,9.2,20.2c-0.5,6.5-9,17.5-9.2,26.1c-0.2,8.6-6.6,29.8-18,36.9c-5,3.1-38.3,18.9-67.5,16.5
					C676.9,1303.9,640.5,1279.6,620.8,1253.1z"/>
				<path class="st2" d="M732.6,1292.1c5.6-1.9,12.2-2.9,20-2.2c31,2.9,43.2-1,52.8-4.8c9.6-3.8,7.8,7.8,3.2,16.3
					c-4.6,8.5-54.9,30.7-73.7,28.5c-18.8-2.3-23.4-13.3-26.3-17.9C708.4,1311.9,715.8,1297.9,732.6,1292.1"/>
				<path class="st2" d="M661.9,1291.2c-0.1,3-18,23.6-23.1,20.2c-5.1-3.4-52.9-31.7-58.7-36.2c-16-12.5-11.7-36-13.3-52.6
					c-1.6-16.6,13.8-28.5,17.9-26.3c8.7,4.8,8.2,13.4,14.1,19c9.9,9.4,11.6,13.3,25.4,22.8S662.2,1284.8,661.9,1291.2z"/>
				<g>
					<g>
						<path class="st4" d="M731.4,1259.1c-17.3,7.9-27.7,22.8-39.1,37.3c-0.7,0.9,0.6,2.2,1.3,1.3c11.3-14.4,21.6-29.1,38.8-37
							C733.4,1260.2,732.5,1258.7,731.4,1259.1L731.4,1259.1z"/>
					</g>
					<path class="st4" d="M736.9,1259.7c0.1,1.9-1.3,3.5-3.2,3.6c-1.9,0.1-3.5-1.3-3.6-3.2c-0.1-1.9,1.3-3.5,3.2-3.6
						C735.2,1256.4,736.8,1257.8,736.9,1259.7z"/>
				</g>
				<g>
					<g>
						<path class="st4" d="M697.2,1243.2c-5.8,18.2-1.7,36,1.3,54.3c0.2,1.2,1.9,0.6,1.7-0.5c-3-18-7-35.5-1.3-53.4
							C699.4,1242.5,697.6,1242.1,697.2,1243.2L697.2,1243.2z"/>
					</g>
					<path class="st4" d="M701.3,1239.5c1.5,1.2,1.7,3.3,0.5,4.8c-1.2,1.5-3.3,1.7-4.8,0.5c-1.5-1.2-1.7-3.3-0.5-4.8
						C697.7,1238.6,699.8,1238.3,701.3,1239.5z"/>
				</g>
				<g>
					<path class="st4" d="M703.9,1258.9c-1.6,1-2.2,3-1.2,4.7c1,1.6,3,2.2,4.7,1.2c1.6-1,2.2-3,1.2-4.7
						C707.6,1258.4,705.5,1257.9,703.9,1258.9z"/>
					<g>
						<path class="st4" d="M705.1,1263.4c-1.1,9.6-6.1,18.2-13.2,24.6c-0.9,0.8,0.4,2,1.3,1.3c7.3-6.6,12.5-15.6,13.6-25.5
							C707,1262.7,705.2,1262.2,705.1,1263.4L705.1,1263.4z"/>
					</g>
				</g>
				<g>
					<path class="st4" d="M659.3,1260.4c0.2,1.9,1.9,3.2,3.7,3c1.9-0.2,3.2-1.9,3-3.7c-0.2-1.9-1.9-3.2-3.7-3
						S659.1,1258.5,659.3,1260.4z"/>
					<g>
						<path class="st4" d="M664,1261.2c9.9,5.8,20.9,14.4,24.6,25.7c0.4,1.1,2.1,0.6,1.7-0.5c-3.9-11.8-15-20.7-25.4-26.8
							C663.9,1259,663,1260.6,664,1261.2L664,1261.2z"/>
					</g>
				</g>
				<g>
					<path class="st4" d="M729.1,1278.6c-0.7,1.8-2.6,2.6-4.4,2c-1.8-0.7-2.6-2.6-2-4.4c0.7-1.8,2.6-2.6,4.4-2
						C728.9,1274.9,729.8,1276.8,729.1,1278.6z"/>
					<g>
						<path class="st4" d="M723.8,1276.4c-9.6,2.7-17.7,9.4-23,17.8c-0.6,1,1,1.9,1.6,0.9c5-8,12.8-14.3,21.9-16.9
							C725.4,1277.8,724.9,1276.1,723.8,1276.4L723.8,1276.4z"/>
					</g>
				</g>
				<g>
					<path class="st4" d="M674.7,1251.6c-0.4,1.8,0.9,3.6,2.7,4c1.8,0.4,3.6-0.9,4-2.7c0.4-1.8-0.9-3.6-2.7-4
						C676.8,1248.6,675.1,1249.8,674.7,1251.6z"/>
					<g>
						<path class="st4" d="M679,1253.8c6.4,6.9,9.7,16.6,9.7,25.9c0,1.2,1.8,1.1,1.8-0.1c0-9.8-3.6-19.9-10.3-27.2
							C679.5,1251.6,678.3,1253,679,1253.8L679,1253.8z"/>
					</g>
				</g>
				<path class="st4" d="M649.1,1277.8c0,0,30-10,43.3-3.6c13.3,6.4,22.8,17.9,20.9,24.5C711.4,1305.2,668.4,1290.2,649.1,1277.8z"
					/>
				<path class="st2" d="M680.1,1329.8c-19.5-5.5-53.2-23-54.5-29.8c-1.3-6.7,6-19.3,12.5-22.8c6.4-3.5,20.7-12.3,33.7-10.2
					c12.9,2,42.8,35.9,54.7,41.4c11.9,5.5,27.3,21.4,12.7,21.5C724.7,1330,699.3,1335.2,680.1,1329.8z"/>
				<path class="st5" d="M644,1274.3c2.9-0.3-17.2,11.8-16.2,19.1c1.1,7.4,8.1,15.5,6.6,15.3s-9.9-9.8-8.5-15.2
					C628.6,1283.3,641.5,1274.5,644,1274.3z"/>
				<path class="st5" d="M670.1,1324.5c0,0-10.1-5.9-13.6-12.3c-3.5-6.4-3.4-9.8-2.3-8.9c1.1,0.9-0.1,3.7,3.5,8.2
					C661.3,1315.9,670.9,1323,670.1,1324.5z"/>
				<path class="st5" d="M724.2,1310.1c7.1,5.3,17,11.9,16.3,14.8c-0.7,2.9,2.8,2.5,1-2.2C739.6,1318,722.7,1309,724.2,1310.1z"/>
			</g>
			<g>
				<path class="st2" d="M1145.5,741.9c-8.8,10.6-7.5,29.6-4.1,40.1c3.3,10.5,6.4,6.6,11.6,12.4c5.3,5.8,19.1-0.3,29.9-11.3
					c10.8-11.1,21.3-34,29.6-33.7c8.3,0.3,29.3,9.1,36.2,5c6.9-4.1-2.2-19.1-8.3-26c-6.1-6.9-35.4-12.5-48.9-10.8
					C1177.8,719.2,1157,728.1,1145.5,741.9z"/>
				<path class="st5" d="M1163.2,785.3c1.5,1.2,14.9-7.7,19.9-15.5c5-7.7,15.7-20.4,19.1-22.4c3.6-2.1-4.9,0.7-16.1,15.6
					C1174.1,779,1160.6,783.3,1163.2,785.3z"/>
				<path class="st5" d="M1153.7,779.4c-0.5-1.5,0.3-12.1,3-18.7c0.7-1.7,1.2-1,0.2,3.5C1155.6,769.5,1154.7,782.7,1153.7,779.4z"/>
			</g>
			<g>
				<path class="st2" d="M204.3,1298.9c7.7-11.5,4.5-30.2,0.1-40.3c-4.4-10.1-7-6-12.8-11.2c-5.8-5.2-19,2.2-28.6,14.3
					c-9.6,12.1-17.8,36-26,36.5c-8.3,0.6-30.1-6.1-36.5-1.3c-6.5,4.8,4.1,18.8,10.9,25c6.7,6.3,36.5,8.9,49.8,5.8
					C174.4,1324.7,194.3,1313.8,204.3,1298.9z"/>
				<path class="st5" d="M182.3,1257.4c-1.7-1.1-14.1,9.2-18.3,17.4c-4.2,8.2-13.6,21.9-16.7,24.2c-3.4,2.5,4.8-1.2,14.4-17.1
					C172.1,1264.8,185.1,1259.2,182.3,1257.4z"/>
				<path class="st5" d="M192.4,1262.4c0.6,1.4,0.9,12.1-1.1,18.9c-0.5,1.8-1.1,1.1-0.5-3.4C191.4,1272.4,191,1259.2,192.4,1262.4z"
					/>
			</g>
			<g>
				<path class="st2" d="M418.8,741.9c-13.6-2.6-29.5,7.8-37.1,15.8c-7.6,8-2.7,8.8-5.3,16.2c-2.5,7.4,9.5,16.6,24.4,20.7
					c14.9,4.1,40.1,2.2,43.8,9.6c3.8,7.4,6.2,30.1,13.2,34.1c7,4,15.6-11.2,18.7-19.8c3.1-8.7-6.2-37-14.2-48.1
					C454.3,759.3,436.4,745.3,418.8,741.9z"/>
				<path class="st5" d="M389.4,778.4c-0.3,1.9,14,9.3,23.2,9.9c9.2,0.6,25.5,3.9,28.8,5.9c3.6,2.2-3-3.9-21.4-6.5
					C400.2,784.9,389.9,775.1,389.4,778.4z"/>
				<path class="st5" d="M390,767.2c1.1-1.1,10.7-5.6,17.8-6.4c1.9-0.2,1.4,0.6-3,1.8C399.5,764.1,387.5,769.7,390,767.2z"/>
			</g>
		</g>
	</g>
</g>
</svg>
