<svg id="Layer_1" data-name="Layer 1" xmlns="http://www.w3.org/2000/svg" viewBox="0 0 386.79 372.16"><defs><style>.cls-1{fill:#ffc3e1;}.cls-2{fill:#ffe1f0;}.cls-3{fill:#fabdbd;}.cls-4{fill:#ffa5d2;}.cls-5{fill:#ff87c3;}</style></defs><path class="cls-1" d="M962.36,317.11c1.17,34.4-24.47,69.29-64.51,85.75q-2.49-4-5.35-8c-21.78-30-53.83-46.67-83.36-46.57L940,306l.3-.13Z" transform="translate(-575.61 -163.33)"/><path class="cls-2" d="M951.67,283.54,940.3,305.87l-.3.13L809.14,348.31H808c24.46-17.1,41-49.79,41-87.32q0-4.8-.36-9.5l.09-.14C891.11,241.12,932.62,254.56,951.67,283.54Z" transform="translate(-575.61 -163.33)"/><path class="cls-2" d="M897.91,403c22.83,37.13,22.87,80.75,1.21,107.83l-24.75-3.92,0,.17L874,507,793.64,395.8q-.25-.81-.54-1.62c23.83,18,60,23.6,95.73,12q4.56-1.49,8.9-3.27Z" transform="translate(-575.61 -163.33)"/><path class="cls-3" d="M897.85,402.86l.06.11-.18-.06Z" transform="translate(-575.61 -163.33)"/><path class="cls-1" d="M897.85,402.86l-.12.05-127-41.5V361A67.61,67.61,0,0,0,807,349l2.1-.68c29.53-.1,61.58,16.6,83.36,46.57Q895.35,398.81,897.85,402.86Z" transform="translate(-575.61 -163.33)"/><path class="cls-2" d="M770.7,361.41l127,41.5q-4.34,1.79-8.9,3.27c-35.69,11.6-71.9,6-95.73-12a67.75,67.75,0,0,0-22.4-31.89Z" transform="translate(-575.61 -163.33)"/><path class="cls-4" d="M874.34,507.05l-3.84,24.28c-31.23,11.34-70.59-.94-98.5-31.46l-.07-7q1.55-2,3-4c21.64-29.78,27.67-65.15,18.7-93.12L874,507Z" transform="translate(-575.61 -163.33)"/><path class="cls-3" d="M848.73,251.36l-.09.14a.41.41,0,0,0,0-.11Z" transform="translate(-575.61 -163.33)"/><path class="cls-2" d="M848.64,251.5q.36,4.69.36,9.5c0,37.53-16.54,70.22-41,87.32a67.88,67.88,0,0,0-37.32,11.5v-1.43Z" transform="translate(-575.61 -163.33)"/><path class="cls-1" d="M848.63,251.39a.41.41,0,0,1,0,.11l-78,106.89,0-3.41a67.31,67.31,0,0,0-.29-29.92l-.08-8.86c9.77-27,35-51.1,69.11-62.19C842.46,253,845.55,252.14,848.63,251.39Z" transform="translate(-575.61 -163.33)"/><path class="cls-1" d="M848.63,251.39c-3.08.75-6.17,1.62-9.25,2.62-34.1,11.09-59.34,35.16-69.11,62.19L769,181l.23-.22.27.27L787,163.54C820.1,173.05,845.34,208.22,848.63,251.39Z" transform="translate(-575.61 -163.33)"/><path class="cls-3" d="M809.14,348.31,807,349l1-.67Z" transform="translate(-575.61 -163.33)"/><path class="cls-2" d="M808,348.32l-1,.67-36.35,11.75v-.92A67.88,67.88,0,0,1,808,348.32Z" transform="translate(-575.61 -163.33)"/><path class="cls-1" d="M770.69,360.74,807,349a67.61,67.61,0,0,1-36.35,12Z" transform="translate(-575.61 -163.33)"/><path class="cls-4" d="M793.64,395.8c9,28,2.94,63.34-18.7,93.12q-1.47,2-3,4L770.74,365.7a67.76,67.76,0,0,0,20.93,27.37Z" transform="translate(-575.61 -163.33)"/><path class="cls-3" d="M793.64,395.8l-2-2.73c.47.38,1,.75,1.43,1.11Q793.39,395,793.64,395.8Z" transform="translate(-575.61 -163.33)"/><path class="cls-2" d="M793.1,394.18c-.48-.36-1-.73-1.43-1.11l-20.95-29,0-1.8A67.75,67.75,0,0,1,793.1,394.18Z" transform="translate(-575.61 -163.33)"/><path class="cls-4" d="M770.72,364.09l20.95,29a67.76,67.76,0,0,1-20.93-27.37Z" transform="translate(-575.61 -163.33)"/><path class="cls-3" d="M771.93,492.89l.07,7c-1-1.1-2-2.24-3-3.39C770,495.31,771,494.11,771.93,492.89Z" transform="translate(-575.61 -163.33)"/><path class="cls-1" d="M770.74,365.7l1.19,127.19c-.95,1.22-1.94,2.42-2.93,3.59-2-2.42-4-4.94-5.94-7.56-22.06-30.36-27.9-66.53-18.16-94.74a67.67,67.67,0,0,0,23.94-32.7l.6.83C769.84,363.46,770.27,364.59,770.74,365.7Z" transform="translate(-575.61 -163.33)"/><path class="cls-3" d="M770.72,364.09l0,1.61c-.47-1.11-.9-2.24-1.3-3.39Z" transform="translate(-575.61 -163.33)"/><path class="cls-3" d="M770.72,364.09l-1.28-1.78c-.12-.35-.24-.7-.35-1.05l.18-.06c.49.35,1,.72,1.43,1.09Z" transform="translate(-575.61 -163.33)"/><path class="cls-3" d="M770.7,362.29c-.47-.37-.94-.74-1.43-1.09l.39-.12,1,.33Z" transform="translate(-575.61 -163.33)"/><path class="cls-3" d="M770.69,361v.43l-1-.33.28-.09Z" transform="translate(-575.61 -163.33)"/><path class="cls-3" d="M770.69,360.74V361h-.75Z" transform="translate(-575.61 -163.33)"/><path class="cls-3" d="M770.68,359.82v.92l-.75.25h-.53l-.27-.09C769.65,360.53,770.16,360.17,770.68,359.82Z" transform="translate(-575.61 -163.33)"/><path class="cls-1" d="M770.35,325.06a67.31,67.31,0,0,1,.29,29.92Z" transform="translate(-575.61 -163.33)"/><path class="cls-3" d="M770.67,358.39v1.43c-.52.35-1,.71-1.54,1.08l-.1,0c.05-.15.1-.29.14-.44Z" transform="translate(-575.61 -163.33)"/><path class="cls-3" d="M770.64,355l0,3.41-1.49,2Q770,357.72,770.64,355Z" transform="translate(-575.61 -163.33)"/><path class="cls-4" d="M770.35,325.06l.29,29.92q-.6,2.73-1.46,5.45l-.25.34A67.58,67.58,0,0,1,769,320C769.52,321.68,770,323.37,770.35,325.06Z" transform="translate(-575.61 -163.33)"/><path class="cls-3" d="M770.27,316.2l.08,8.86c-.38-1.69-.83-3.38-1.35-5.05C769.38,318.73,769.81,317.46,770.27,316.2Z" transform="translate(-575.61 -163.33)"/><path class="cls-4" d="M769,181l1.27,135.2c-.46,1.26-.89,2.53-1.27,3.81-8.7-28.56-34.69-54.4-70.38-66-3.08-1-6.17-1.87-9.25-2.62,3.32-43.51,28.94-78.88,62.41-88.06l17.45,17.45Z" transform="translate(-575.61 -163.33)"/><path class="cls-3" d="M769.94,361l-.28.09-.25-.09Z" transform="translate(-575.61 -163.33)"/><path class="cls-3" d="M769.41,361l.25.09-.39.12L769,361Z" transform="translate(-575.61 -163.33)"/><path class="cls-3" d="M769.09,361.26c.11.35.23.7.35,1.05l-.6-.83a.88.88,0,0,0,0-.15Z" transform="translate(-575.61 -163.33)"/><path class="cls-3" d="M769.41,361H769l.14-.1Z" transform="translate(-575.61 -163.33)"/><path class="cls-3" d="M769.27,361.2l-.18.06L769,361Z" transform="translate(-575.61 -163.33)"/><path class="cls-3" d="M768.93,360.77l.25-.34c0,.15-.09.29-.14.44l-.09,0A.19.19,0,0,1,768.93,360.77Z" transform="translate(-575.61 -163.33)"/><path class="cls-3" d="M769.14,360.9l-.14.1,0-.13Z" transform="translate(-575.61 -163.33)"/><path class="cls-3" d="M769,361l.09.26-.2.07Z" transform="translate(-575.61 -163.33)"/><path class="cls-3" d="M769,360.87l0,.13c0-.05,0-.11,0-.16Z" transform="translate(-575.61 -163.33)"/><path class="cls-3" d="M769,360.84c0,.05,0,.11,0,.16l-.16-.11,0-.07Z" transform="translate(-575.61 -163.33)"/><path class="cls-3" d="M769,361l-.11.33-.13,0-.09-.12Z" transform="translate(-575.61 -163.33)"/><path class="cls-3" d="M769,361l-.33.25,0-.06.14-.19Z" transform="translate(-575.61 -163.33)"/><path class="cls-3" d="M769,361h-.23l.07-.11Z" transform="translate(-575.61 -163.33)"/><path class="cls-3" d="M768.93,360.77a.19.19,0,0,0,0,.07l-.06,0Z" transform="translate(-575.61 -163.33)"/><path class="cls-4" d="M768.93,360.77l0,.05-.26-.08c-.22-.16-.44-.32-.67-.47L689.36,251.5a.37.37,0,0,1,0-.11c3.08.75,6.17,1.62,9.25,2.62,35.69,11.6,61.68,37.44,70.38,66A67.58,67.58,0,0,0,768.93,360.77Z" transform="translate(-575.61 -163.33)"/><path class="cls-3" d="M768.89,360.82l0,.07a1.37,1.37,0,0,0-.21-.15Z" transform="translate(-575.61 -163.33)"/><path class="cls-3" d="M768.89,361.33a.88.88,0,0,1,0,.15l-.08-.11Z" transform="translate(-575.61 -163.33)"/><path class="cls-3" d="M768.84,360.89l-.07.11h-.28l-.29-.39.43.14A1.37,1.37,0,0,1,768.84,360.89Z" transform="translate(-575.61 -163.33)"/><path class="cls-1" d="M768.76,361.37l.08.11a67.67,67.67,0,0,1-23.94,32.7c.09-.3.2-.59.31-.88l23.21-31.82Z" transform="translate(-575.61 -163.33)"/><path class="cls-3" d="M768.77,361l-.14.19-.14-.2Z" transform="translate(-575.61 -163.33)"/><path class="cls-3" d="M768.67,361.25l.09.12-.34.11.06-.09A1.33,1.33,0,0,1,768.67,361.25Z" transform="translate(-575.61 -163.33)"/><path class="cls-3" d="M768.63,361.19l0,.06a1.33,1.33,0,0,0-.19.14Z" transform="translate(-575.61 -163.33)"/><path class="cls-4" d="M768.49,361l.14.2-.15.2a.79.79,0,0,0-.15.12l-128.05,41.4-.13-.05q2.49-4,5.35-8c22-30.36,54.65-47.09,84.5-46.56A67.59,67.59,0,0,0,768.49,361Z" transform="translate(-575.61 -163.33)"/><path class="cls-3" d="M768.63,360.74l-.43-.14-.24-.33C768.19,360.42,768.41,360.58,768.63,360.74Z" transform="translate(-575.61 -163.33)"/><path class="cls-4" d="M768.2,360.6l.29.39A67.59,67.59,0,0,1,730,348.32l.68,0Z" transform="translate(-575.61 -163.33)"/><path class="cls-3" d="M768.33,361.51a.79.79,0,0,1,.15-.12l-.06.09Z" transform="translate(-575.61 -163.33)"/><path class="cls-5" d="M768.42,361.48,745.21,393.3a67.42,67.42,0,0,1,23.12-31.79Z" transform="translate(-575.61 -163.33)"/><path class="cls-5" d="M640.28,402.91l128.05-41.4a67.42,67.42,0,0,0-23.12,31.79l-1,1.42c-23.83,17.55-59.67,22.94-95,11.46Q644.61,404.7,640.28,402.91Z" transform="translate(-575.61 -163.33)"/><path class="cls-1" d="M768,360.27l.24.33-37.52-12.26A67.55,67.55,0,0,1,768,360.27Z" transform="translate(-575.61 -163.33)"/><path class="cls-1" d="M689.36,251.5,768,360.27a67.55,67.55,0,0,0-37.28-11.93l-1.23-.4C705.29,330.73,689,298.25,689,261,689,257.79,689.12,254.63,689.36,251.5Z" transform="translate(-575.61 -163.33)"/><path class="cls-1" d="M763.06,488.92c1.9,2.62,3.89,5.14,5.94,7.56-28.26,33.26-69.78,46.81-102.26,34.56l-3.92-24.75L663,506l81.17-111.28.73-.54C735.16,422.39,741,458.56,763.06,488.92Z" transform="translate(-575.61 -163.33)"/><path class="cls-3" d="M744.17,394.72l1-1.42c-.11.29-.22.58-.31.88Z" transform="translate(-575.61 -163.33)"/><path class="cls-5" d="M744.17,394.72,663,506l-.18.29-24.45,3.87C617.21,483,617.44,439.81,640.09,403l.19-.06q4.34,1.79,8.89,3.27C684.5,417.66,720.34,412.27,744.17,394.72Z" transform="translate(-575.61 -163.33)"/><path class="cls-3" d="M730.68,348.34l-.68,0c-.19-.12-.37-.25-.55-.38Z" transform="translate(-575.61 -163.33)"/><path class="cls-4" d="M729.45,347.94c.18.13.36.26.55.38-29.85-.53-62.45,16.2-84.5,46.56q-2.85,3.93-5.35,8c-40.35-16.59-66.08-51.9-64.47-86.57L598,304.94l0,.06Z" transform="translate(-575.61 -163.33)"/><path class="cls-1" d="M729.45,347.94,598,305l0-.06,0,0-11.24-22.06c19.26-28.51,60.45-41.65,102.49-31.5l.1.14c-.24,3.13-.36,6.29-.36,9.5C689,298.25,705.29,330.73,729.45,347.94Z" transform="translate(-575.61 -163.33)"/><path class="cls-3" d="M689.37,251.39a.37.37,0,0,0,0,.11l-.1-.14Z" transform="translate(-575.61 -163.33)"/><path class="cls-3" d="M640.28,402.91l-.19.06.06-.11Z" transform="translate(-575.61 -163.33)"/></svg>