<?xml version="1.0" encoding="utf-8"?>
<!-- Generator: Adobe Illustrator 25.3.1, SVG Export Plug-In . SVG Version: 6.00 Build 0)  -->
<svg version="1.1" id="Layer_1" xmlns="http://www.w3.org/2000/svg" xmlns:xlink="http://www.w3.org/1999/xlink" x="0px" y="0px"
	 viewBox="0 0 410.9 404.3" style="enable-background:new 0 0 410.9 404.3;" xml:space="preserve">
<style type="text/css">
	.st0{fill:#FFAAAA;stroke:#FFFFFF;stroke-width:1.9288;stroke-miterlimit:4;}
	.st1{fill:#FFFFFF;stroke:#FFAAAA;stroke-width:1.4644;stroke-miterlimit:4;}
	.st2{fill-rule:evenodd;clip-rule:evenodd;fill:#FFAAAA;}
	.st3{fill-rule:evenodd;clip-rule:evenodd;fill:#FFAAAA;stroke:#FFFFFF;stroke-width:1;stroke-miterlimit:4;}
</style>
<g>
	<g id="svg_4" transform="rotate(-0.0784191)">
		<path id="path572" class="st0" d="M271.4,119C287.8,68.6,249.8,2.8,238.7,1.5c-16.4,16.8-16.4,16.8-32.7,33.6
			c-16.3-16.8-16.3-16.8-32.7-33.6c-9,6.8-49.1,67.2-32.7,120.8C99,94.1,26.3,105.7,21.7,116.1c10.5,21.2,10.5,21.2,21,42.3
			C22.1,169.2,22.1,169.2,1.5,180c3.5,10.8,48.2,67,99.9,73.3c-42.1,37.6-50.2,104-42,111.7c22.8-3.7,22.8-3.7,45.7-7.4
			c3.6,23.5,3.6,23.5,7.2,46.9c11.1-0.1,75.4-36.1,93.7-77.3c18.3,60,84,82.2,93.7,76.6c3.6-23.4,3.6-23.4,7.2-46.9
			c22.8,3.7,22.8,3.7,45.4,6.8c3.1-11.5,2.3-81.9-33.2-120.7c58.2-7.5,93.7-53,91.5-64.1C390,168,390,168,369.4,157.2
			c10.5-21.2,10.5-21.2,21-42.3c-9-6.6-77.3-27.1-118.9,4.4"/>
		<path id="path566" class="st1" d="M260.5,133c13.6-42-18-96.8-27.2-97.9c-13.6,14-13.6,14-27.3,28c-13.6-14-13.6-14-27.2-28
			c-7.5,5.6-40.9,56-27.3,100.7c-34.7-23.5-95.3-13.9-99.1-5.2c8.7,17.6,8.7,17.6,17.5,35.3c-17.2,9-17.2,9-34.3,18
			c2.9,9,40.2,55.8,83.3,61.1c-35.1,31.3-41.8,86.6-35,93.1c19-3.1,19-3.1,38.1-6.2c3,19.5,3,19.5,6,39.1
			c9.3-0.1,62.8-30.1,78.1-64.4c15.3,50,70,68.5,78.1,63.8c3-19.5,3-19.5,6-39.1c19,3.1,19,3.1,37.8,5.6
			c2.6-9.6,1.9-68.2-27.7-100.6c48.5-6.3,78.1-44.1,76.2-53.5c-17.2-9-17.2-9-34.3-18c8.7-17.6,8.7-17.6,17.5-35.3
			c-7.5-5.5-64.5-22.6-99.1,3.7"/>
		<path id="path569" class="st2" d="M298.6,231.1L210.3,214l-4.7,89.6l-4.4-89.3l-81.5,28.1l78.4-36.5l-47-75.4l54.2,69.9l55.5-70
			l-48,75L298.6,231.1z"/>
		<path id="path570" class="st2" d="M146,192.6l57.1,11.1l3-57.9l2.9,57.7l52.7-18.1L211,208.9l30.4,48.8l-35-45.2l-35.9,45.2
			l31-48.5L146,192.6z"/>
		<path id="path567" class="st3" d="M233.3,203c0.1,15.5-11.9,28.1-27,28.2c-15,0.1-27.4-12.3-27.5-27.7c0-0.2,0-0.3,0-0.5
			c-0.1-15.5,11.9-28.1,27-28.2c15-0.1,27.4,12.3,27.5,27.7C233.3,202.7,233.3,202.9,233.3,203z"/>
		<path id="path571" class="st2" d="M163.7,194.9c0,4.7-3.6,8.6-8.2,8.6c-4.6,0-8.3-3.7-8.4-8.5c0-0.1,0-0.1,0-0.2
			c0-4.7,3.6-8.6,8.2-8.6c4.6,0,8.3,3.7,8.4,8.5C163.7,194.8,163.7,194.8,163.7,194.9z"/>
		<path id="path573" class="st2" d="M213.4,146.3c0,4.7-3.6,8.6-8.2,8.6c-4.6,0-8.3-3.7-8.4-8.5c0-0.1,0-0.1,0-0.2
			c0-4.7,3.6-8.6,8.2-8.6c4.6,0,8.3,3.7,8.4,8.5C213.4,146.2,213.4,146.3,213.4,146.3z"/>
		<path id="path575" class="st2" d="M268.7,184.2c0,4.7-3.6,8.6-8.2,8.6c-4.6,0-8.3-3.7-8.4-8.5c0-0.1,0-0.1,0-0.2
			c0-4.7,3.6-8.6,8.2-8.6s8.3,3.7,8.4,8.5C268.7,184.1,268.7,184.2,268.7,184.2z"/>
		<path id="path576" class="st2" d="M184.5,248.2c0,4.7-3.6,8.6-8.2,8.6s-8.3-3.7-8.4-8.5c0-0.1,0-0.1,0-0.2c0-4.7,3.6-8.6,8.2-8.6
			c4.6,0,8.3,3.7,8.4,8.5C184.5,248.1,184.5,248.1,184.5,248.2z"/>
		<path id="path577" class="st2" d="M249.1,252.9c0,4.7-3.6,8.6-8.2,8.6c-4.6,0-8.3-3.7-8.4-8.5c0-0.1,0-0.1,0-0.2
			c0-4.7,3.6-8.6,8.2-8.6c4.6,0,8.3,3.7,8.4,8.5C249.1,252.8,249.1,252.9,249.1,252.9z"/>
	</g>
</g>
</svg>
